<svg width="958" height="729" xmlns="http://www.w3.org/2000/svg" xmlns:xlink="http://www.w3.org/1999/xlink" xml:space="preserve" overflow="hidden"><g transform="translate(-4126 -3018)"><path d="M0.0263451-0.101377 0.026706 554.899" stroke="#000000" stroke-width="7.85085" stroke-miterlimit="8" fill="none" fill-rule="evenodd" transform="matrix(1 0 0 -1 4586 3613)"/><path d="M-0.0064716 18.4963C-0.0064716 8.27892 37.8254-0.00389897 84.4936-0.00389897 131.162-0.00389897 168.993 8.27892 168.993 18.4963 168.993 28.7138 131.162 36.9966 84.4936 36.9966 37.8254 36.9966-0.0064716 28.7138-0.0064716 18.4963Z" stroke="#000000" stroke-width="7.85085" stroke-miterlimit="8" fill="none" fill-rule="evenodd" transform="matrix(1 0 0 -1 4502 3079)"/><path d="M4596.76 3052.47 4635.76 3075.97 4596.76 3099.47Z" fill-rule="evenodd"/><path d="M4572.78 3064.49 4533.78 3041.49 4572.78 3018.49Z" fill-rule="evenodd"/><path d="M4130.76 3605.27C4130.76 3548.94 4334.47 3503.27 4585.76 3503.27 4837.05 3503.27 5040.76 3548.94 5040.76 3605.27 5040.76 3661.6 4837.05 3707.27 4585.76 3707.27 4334.47 3707.27 4130.76 3661.6 4130.76 3605.27Z" stroke="#000000" stroke-width="7.85085" stroke-miterlimit="8" stroke-dasharray="7.85085 7.85085" fill="none" fill-rule="evenodd"/><path d="M4965.65 3634.47 4953.02 3742.25 4797.65 3724.03 4810.29 3616.25Z" stroke="#000000" stroke-width="7.85085" stroke-miterlimit="8" fill="#D9D9D9" fill-rule="evenodd"/><path d="M5020.29 3740.24 4955.6 3715.74 4962 3661.09 5030.6 3652.24Z" stroke="#000000" stroke-width="7.85085" stroke-miterlimit="8" fill="#D9D9D9" fill-rule="evenodd"/><path d="M5005.83 3460.31 5013.63 3569.03 4857.42 3580.31 4849.63 3471.58Z" stroke="#000000" stroke-width="7.85085" stroke-miterlimit="8" fill="#D9D9D9" fill-rule="evenodd"/><path d="M5079.59 3554.31 5011.52 3542.3 5007.59 3487.03 5073.24 3465.31Z" stroke="#000000" stroke-width="7.85085" stroke-miterlimit="8" fill="#D9D9D9" fill-rule="evenodd"/><path d="M4955.77 3552.99 4959.16 3561.69 4960.25 3567.52 4960.92 3573.18 4961.19 3578.83 4961.07 3584.49 4960.56 3590.12 4959.68 3595.72 4958.42 3601.29 4956.78 3606.81 4954.77 3612.28 4952.39 3617.67 4949.65 3623 4946.53 3628.29 4939.29 3638.48 4930.63 3648.3 4920.61 3657.65 4909.25 3666.47 4896.57 3674.72 4882.7 3682.27 4879.63 3676.6 4893.38 3669.1 4893.17 3669.23 4905.64 3661.12 4905.41 3661.28 4916.56 3652.63 4916.33 3652.82 4926.14 3643.67 4925.91 3643.9 4934.35 3634.32 4934.15 3634.59 4941.2 3624.65 4941.06 3624.88 4944.07 3619.79 4943.97 3619.96 4946.62 3614.8 4946.54 3614.97 4948.83 3609.76 4948.76 3609.94 4950.7 3604.67 4950.63 3604.86 4952.21 3599.55 4952.16 3599.75 4953.38 3594.4 4953.34 3594.6 4954.19 3589.22 4954.16 3589.43 4954.64 3584.02 4954.63 3584.25 4954.74 3578.82 4954.74 3579.03 4954.48 3573.6 4954.5 3573.82 4953.87 3568.39 4953.9 3568.6 4952.89 3563.17 4953.06 3563.75 4949.78 3555.35ZM4936.09 3568.39 4934.03 3520.27 4973.63 3547.49Z" fill-rule="evenodd"/><path d="M4130.76 3298.39C4130.76 3242.06 4334.47 3196.39 4585.76 3196.39 4837.05 3196.39 5040.76 3242.06 5040.76 3298.39 5040.76 3354.72 4837.05 3400.39 4585.76 3400.39 4334.47 3400.39 4130.76 3354.72 4130.76 3298.39Z" stroke="#000000" stroke-width="7.85085" stroke-miterlimit="8" stroke-dasharray="7.85085 7.85085" stroke-opacity="0.501961" fill="none" fill-rule="evenodd"/><path d="M4965.65 3326.73 4953.02 3435.36 4797.65 3416.99 4810.29 3308.36Z" stroke="#000000" stroke-width="7.85085" stroke-miterlimit="8" stroke-opacity="0.501961" fill="#FF0000" fill-rule="evenodd" fill-opacity="0.2"/><path d="M5020.29 3433.36 4955.6 3408.86 4962 3354.22 5030.6 3345.36Z" stroke="#000000" stroke-width="7.85085" stroke-miterlimit="8" stroke-opacity="0.501961" fill="#FF0000" fill-rule="evenodd" fill-opacity="0.2"/><path d="M5005.83 3153.42 5013.63 3262.14 4857.42 3273.42 4849.63 3164.71Z" stroke="#000000" stroke-width="7.85085" stroke-miterlimit="8" stroke-opacity="0.501961" fill="#FF0000" fill-rule="evenodd" fill-opacity="0.2"/><path d="M5079.59 3247.42 5011.52 3235.41 5007.59 3180.14 5073.24 3158.42Z" stroke="#000000" stroke-width="7.85085" stroke-miterlimit="8" stroke-opacity="0.501961" fill="#FF0000" fill-rule="evenodd" fill-opacity="0.2"/><path d="M4955.77 3246.11 4959.16 3254.8 4960.25 3260.64 4960.92 3266.29 4961.19 3271.95 4961.07 3277.61 4960.56 3283.24 4959.68 3288.84 4958.42 3294.41 4956.78 3299.92 4954.77 3305.39 4952.39 3310.79 4949.65 3316.12 4946.53 3321.41 4939.29 3331.59 4930.63 3341.41 4920.61 3350.76 4909.25 3359.58 4896.57 3367.83 4882.7 3375.39 4879.63 3369.71 4893.38 3362.22 4893.17 3362.35 4905.64 3354.24 4905.41 3354.4 4916.56 3345.74 4916.33 3345.93 4926.14 3336.79 4925.91 3337.01 4934.35 3327.44 4934.15 3327.7 4941.2 3317.77 4941.06 3317.99 4944.07 3312.9 4943.97 3313.07 4946.62 3307.91 4946.54 3308.09 4948.83 3302.88 4948.76 3303.05 4950.7 3297.78 4950.63 3297.98 4952.21 3292.66 4952.16 3292.87 4953.38 3287.51 4953.34 3287.72 4954.19 3282.33 4954.16 3282.55 4954.64 3277.14 4954.63 3277.36 4954.74 3271.93 4954.74 3272.15 4954.48 3266.72 4954.5 3266.93 4953.87 3261.5 4953.9 3261.72 4952.89 3256.29 4953.06 3256.87 4949.78 3248.47ZM4936.09 3261.5 4934.03 3213.39 4973.63 3240.6Z" fill="#000000" fill-rule="evenodd" fill-opacity="0.501961"/><path d="M4315.88 3467.06 4315.88 3593.56 4308.03 3593.56 4308.03 3467.06ZM4289.04 3471.64 4311.95 3425.81 4334.87 3471.64ZM4334.87 3588.98 4311.95 3634.81 4289.04 3588.98Z"/></g></svg>