<svg width="797" height="1043" xmlns="http://www.w3.org/2000/svg" xmlns:xlink="http://www.w3.org/1999/xlink" xml:space="preserve" overflow="hidden"><defs><clipPath id="clip0"><rect x="3046" y="2884" width="797" height="1043"/></clipPath></defs><g clip-path="url(#clip0)" transform="translate(-3046 -2884)"><path d="M3251.76 3463.96C3095.94 3335.89 3064.77 3107.25 3180.81 2938.96" stroke="#000000" stroke-width="7.85085" stroke-miterlimit="8" fill="none" fill-rule="evenodd"/><path d="M3744.72 3714.93C3670.96 3647.1 3636.05 3545.68 3651.2 3442.93" stroke="#000000" stroke-width="7.85085" stroke-miterlimit="8" fill="none" fill-rule="evenodd"/><path d="M3652.73 3446.95C3604.04 3391.24 3583.37 3316.08 3598.71 3244.95" stroke="#000000" stroke-width="7.85085" stroke-miterlimit="8" fill="none" fill-rule="evenodd"/><path d="M3754.78 3638.92 3805.72 3695.35 3725.66 3769.92 3674.72 3713.49Z" stroke="#000000" stroke-width="7.85085" stroke-miterlimit="8" fill="#D9D9D9" fill-rule="evenodd"/><path d="M3835.71 3658.15 3792.84 3680.92 3766.71 3652.79 3793.51 3611.92Z" stroke="#000000" stroke-width="7.85085" stroke-miterlimit="8" fill="#D9D9D9" fill-rule="evenodd"/><path d="M3415.74 3838.19 3450.4 3905.91 3547.74 3855.62 3513.07 3787.91Z" stroke="#000000" stroke-width="7.85085" stroke-miterlimit="8" fill="#D9D9D9" fill-rule="evenodd"/><path d="M3405.12 3919.91 3440.75 3887.91 3423.59 3853.91 3376.75 3865.24Z" stroke="#000000" stroke-width="7.85085" stroke-miterlimit="8" fill="#D9D9D9" fill-rule="evenodd"/><path d="M3529.73 3821.91 3699.73 3741.91" stroke="#000000" stroke-width="7.85085" stroke-miterlimit="8" fill="none" fill-rule="evenodd"/><path d="M3499.62 3860.27 3504.94 3861.61 3515.58 3862.95 3525.56 3864.96 3536.2 3865.63 3546.17 3865.63 3556.81 3865.63 3566.79 3864.96 3576.76 3863.62 3587.41 3862.28 3597.38 3860.27 3606.69 3857.58 3616.67 3854.23 3625.98 3850.88 3635.29 3846.85 3644.6 3842.16 3653.25 3837.46 3661.89 3832.1 3670.54 3826.73 3678.52 3820.02 3686.5 3813.98 3693.82 3806.61 3701.13 3799.23 3708.45 3791.85 3714.43 3783.8 3721.08 3775.08 3726.4 3766.36 3732.39 3756.97 3737.04 3747.58 3741.7 3738.19 3745.69 3728.12 3748.35 3719.4 3751.01 3711.35 3747.02 3710.01 3744.36 3718.06 3744.36 3718.06 3741.7 3726.11 3741.7 3726.11 3737.71 3736.17 3737.71 3736.17 3733.05 3745.56 3733.05 3745.56 3728.4 3754.96 3728.4 3754.96 3723.08 3764.35 3723.08 3763.68 3717.09 3772.4 3717.09 3772.4 3711.11 3781.12 3711.11 3781.12 3704.46 3789.17 3705.12 3788.49 3697.81 3796.54 3697.81 3796.54 3691.16 3803.92 3691.16 3803.25 3683.17 3810.63 3683.84 3810.63 3675.86 3816.67 3675.86 3816.67 3667.88 3822.7 3667.88 3822.7 3659.9 3828.07 3659.9 3828.07 3651.25 3833.44 3651.25 3833.44 3642.61 3838.13 3642.61 3838.13 3633.29 3842.83 3633.29 3842.83 3624.65 3846.85 3624.65 3846.85 3615.34 3850.21 3615.34 3850.21 3605.36 3852.89 3605.36 3852.89 3596.05 3855.57 3596.05 3855.57 3586.08 3857.58 3586.08 3857.58 3576.1 3859.6 3576.76 3859.6 3566.79 3860.27 3566.79 3860.27 3556.15 3860.94 3556.81 3860.94 3546.17 3861.61 3546.17 3861.61 3536.2 3860.94 3536.2 3860.94 3526.22 3860.27 3526.22 3860.27 3516.24 3858.93 3516.24 3858.93 3505.6 3856.91 3505.6 3856.91 3500.95 3855.57ZM3507.6 3844.17 3475.01 3850.21 3498.95 3873.01Z" fill-rule="evenodd"/><path d="M3696.06 3389.94 3720.72 3462.84 3617.39 3497.94 3592.72 3425.71Z" stroke="#000000" stroke-width="7.85085" stroke-miterlimit="8" fill="#D9D9D9" fill-rule="evenodd"/><path d="M3761.72 3438.92 3713.72 3442.94 3701.72 3406.75 3741.72 3379.94Z" stroke="#000000" stroke-width="7.85085" stroke-miterlimit="8" fill="#D9D9D9" fill-rule="evenodd"/><path d="M3197.03 3411.94 3189.76 3487.86 3298.15 3497.94 3304.76 3422.02Z" stroke="#000000" stroke-width="7.85085" stroke-miterlimit="8" fill="#D9D9D9" fill-rule="evenodd"/><path d="M3144.76 3474.94 3191.79 3467.53 3195.76 3429.11 3150.06 3412.94Z" stroke="#000000" stroke-width="7.85085" stroke-miterlimit="8" fill="#D9D9D9" fill-rule="evenodd"/><path d="M3301.74 3459.95 3604.74 3461.95" stroke="#000000" stroke-width="7.85085" stroke-miterlimit="8" fill="none" fill-rule="evenodd"/><path d="M3655.73 3212.33 3648.4 3287.95 3539.73 3276.58 3547.06 3200.95Z" stroke="#000000" stroke-width="7.85085" stroke-miterlimit="8" fill="#D9D9D9" fill-rule="evenodd"/><path d="M3694.76 3284.95 3649.72 3268.02 3653.7 3229.4 3700.72 3221.95Z" stroke="#000000" stroke-width="7.85085" stroke-miterlimit="8" fill="#D9D9D9" fill-rule="evenodd"/><path d="M3101.76 2928.44 3128.36 2999.98 3230.76 2961.51 3204.16 2889.98Z" stroke="#000000" stroke-width="7.85085" stroke-miterlimit="8" fill="#D9D9D9" fill-rule="evenodd"/><path d="M3081.99 3007.97 3121.77 2980.78 3108.51 2944.97 3060.77 2950.28Z" stroke="#000000" stroke-width="7.85085" stroke-miterlimit="8" fill="#D9D9D9" fill-rule="evenodd"/><path d="M3217.75 2925.97 3543.75 3238.97" stroke="#000000" stroke-width="7.85085" stroke-miterlimit="8" fill="none" fill-rule="evenodd"/><path d="M3470.75 3847.92C3309.51 3804.44 3215.3 3632.51 3259.75 3463.92" stroke="#000000" stroke-width="7.85085" stroke-miterlimit="8" fill="none" fill-rule="evenodd"/><path d="M3281.94 3482.32 3291.91 3490.4 3302.54 3498.49 3313.17 3505.23 3324.46 3511.97 3335.09 3518.04 3347.05 3523.43 3358.34 3528.15 3370.3 3532.87 3382.26 3536.24 3394.88 3538.94 3406.84 3541.63 3419.46 3543.66 3431.42 3544.33 3444.04 3545 3456.66 3545 3469.28 3545 3481.24 3543.66 3493.86 3541.63 3505.82 3539.61 3518.45 3536.24 3530.4 3532.87 3542.36 3528.15 3553.66 3523.43 3565.61 3518.04 3576.91 3511.97 3588.2 3505.23 3598.83 3498.49 3609.46 3490.4 3619.42 3481.64 3629.39 3472.88 3636.7 3465.46 3644 3457.37 3640.68 3454 3634.04 3462.09 3634.04 3462.09 3626.07 3469.51 3626.73 3469.51 3616.77 3478.27 3616.77 3478.27 3606.8 3487.03 3606.8 3487.03 3596.17 3494.45 3596.17 3494.45 3585.54 3501.86 3585.54 3501.86 3574.91 3507.93 3574.91 3507.93 3563.62 3514 3563.62 3514 3552.33 3519.39 3552.33 3519.39 3540.37 3524.11 3540.37 3524.11 3529.07 3528.15 3529.07 3528.15 3517.12 3532.2 3517.12 3532.2 3505.16 3534.89 3505.16 3534.89 3493.2 3536.92 3493.2 3536.92 3480.58 3538.94 3481.24 3538.94 3468.62 3540.29 3468.62 3540.29 3456.66 3540.96 3456.66 3540.96 3444.04 3540.96 3444.04 3540.96 3432.08 3540.29 3432.08 3540.29 3419.46 3538.94 3420.12 3538.94 3407.5 3536.92 3407.5 3536.92 3395.54 3534.89 3395.54 3534.89 3383.59 3531.52 3383.59 3531.52 3371.63 3528.15 3371.63 3528.15 3360.33 3524.11 3360.33 3524.11 3348.38 3519.39 3349.04 3519.39 3337.08 3514 3337.75 3514 3326.45 3507.93 3326.45 3507.93 3315.16 3501.86 3315.82 3501.86 3304.53 3494.45 3305.19 3494.45 3294.56 3487.03 3294.56 3487.03 3285.26 3478.95ZM3295.89 3471.53 3264 3462.09 3275.96 3493.77Z" fill-rule="evenodd"/><path d="M3176.62 2966.83 3176.62 2977.57 3176.62 2984.95 3177.28 2992.33 3178.61 2999.71 3180.6 3013.8 3183.92 3027.89 3188.57 3041.98 3193.89 3055.4 3199.86 3068.82 3207.17 3082.24 3215.14 3094.99 3223.77 3107.06 3233.07 3119.14 3243.69 3130.55 3254.98 3141.95 3266.27 3152.69 3278.89 3162.75 3292.17 3172.82 3306.12 3182.21 3320.73 3190.93 3336 3199.66 3351.27 3207.04 3367.88 3214.42 3384.48 3221.13 3402.41 3227.17 3420.34 3232.53 3438.27 3237.23 3457.53 3241.93 3476.79 3245.28 3496.04 3247.97 3516.63 3249.98 3537.22 3251.32 3551.16 3251.32 3565.11 3251.99 3579.06 3251.32 3593 3250.65 3593 3246.62 3579.06 3246.62 3579.06 3246.62 3565.11 3247.3 3565.11 3247.3 3551.16 3247.3 3551.16 3247.3 3537.22 3246.62 3537.22 3246.62 3516.63 3245.28 3516.63 3245.28 3496.71 3243.27 3496.71 3243.27 3477.45 3240.59 3477.45 3240.59 3458.19 3237.23 3458.19 3237.23 3439.6 3233.21 3439.6 3233.21 3421 3228.51 3421 3228.51 3403.74 3223.14 3403.74 3223.14 3386.47 3217.1 3386.47 3217.1 3369.87 3210.39 3369.87 3210.39 3353.27 3203.01 3353.27 3203.01 3337.99 3195.63 3337.99 3195.63 3322.72 3186.91 3322.72 3187.58 3308.77 3178.19 3308.77 3178.19 3294.83 3169.46 3294.83 3169.46 3281.54 3159.4 3281.54 3159.4 3269.59 3149.33 3269.59 3149.33 3257.64 3138.6 3257.64 3138.6 3247.01 3127.86 3247.01 3127.86 3236.39 3116.46 3237.05 3116.46 3227.09 3104.38 3227.09 3104.38 3218.46 3092.3 3219.12 3092.3 3211.15 3079.55 3211.15 3079.55 3203.85 3066.81 3203.85 3066.81 3197.87 3054.06 3197.87 3054.06 3192.56 3040.64 3192.56 3040.64 3188.57 3026.55 3188.57 3026.55 3185.25 3013.13 3185.25 3013.13 3182.6 2999.04 3182.6 2999.04 3181.93 2991.66 3181.93 2991.66 3181.27 2984.28 3181.27 2984.28 3181.27 2976.9 3181.27 2977.57 3181.27 2967.5ZM3193.22 2971.53 3180.6 2939.99 3164 2968.84Z" fill-rule="evenodd"/><path d="M23.3103 17.6812 29.408 23.3997 33.791 28.2199 30.206 31.5483 25.8882 26.7997 26.025 26.9383 19.9986 21.2864ZM37.0843 31.8425 42.3475 37.6313 46.7384 43.1089 42.955 46.2048 38.6123 40.7867 38.7116 40.903 33.4996 35.1702ZM49.8015 46.9318 54.4839 52.7735 58.7338 58.7849 54.7736 61.6447 50.5654 55.6934 50.6548 55.8115 46.0189 50.0278ZM61.5639 62.7874 65.8046 68.7847 69.7749 75.1565 65.6554 77.7774 61.7226 71.4663 61.8018 71.5848 57.6031 65.6471ZM72.3685 79.32 76.2863 85.6075 79.8608 92.1421 75.6003 94.5217 72.0593 88.0489 72.1292 88.169 68.249 81.9399ZM82.2158 96.4469 85.9049 103.189 88.9971 109.664 84.6127 111.801 81.5495 105.388 81.6117 105.509 77.956 98.8268ZM91.1128 114.094 94.6361 121.472 97.1894 127.653 92.6975 129.548 90.1688 123.428 90.2234 123.549 86.7285 116.231ZM99.0652 132.192 102.457 140.402 104.447 146.045 99.8618 147.696 97.8925 142.115 97.9392 142.237 94.5723 134.087ZM106.081 150.678 109.342 159.924 110.777 164.782 106.113 166.19 104.696 161.393 104.735 161.515 101.496 152.329ZM112.17 169.496 115.269 179.983 116.19 183.81 111.459 184.972 110.554 181.207 110.586 181.33 107.505 170.902ZM117.34 188.59 120.212 200.524 120.691 203.079 115.909 203.995 115.441 201.503 115.467 201.626 112.61 189.752ZM121.598 207.912 124.147 221.493 124.29 222.541 119.468 223.211 119.333 222.225 119.354 222.348 116.816 208.828ZM124.953 227.414 126.943 242.034 122.12 242.703 120.131 228.085ZM127.461 247.018 128.108 253.626 128.702 261.782 123.847 262.143 123.255 254.017 123.261 254.08 122.616 247.503ZM129.006 266.754 129.418 275.422 129.556 281.562 124.69 281.673 124.552 275.565 124.554 275.627 124.144 266.99ZM13.3241 33.9316-0.209901-0.0856669 34.8426 9.38445Z" fill="#000000" fill-rule="evenodd" fill-opacity="0.501961" transform="matrix(-0.520067 0.854126 0.854126 0.520067 3542.06 3446.58)"/><path d="M29.065 13.2074 33.2115 13.9105 43.4871 16.4764 42.3188 21.2515 32.1336 18.7081 32.3142 18.746 28.2592 18.0583ZM48.2629 17.8593 54.6589 19.744 62.2802 22.3393 60.7252 27.0008 53.1517 24.4215 53.248 24.4519 46.9001 22.5812ZM66.9605 24.0198 75.3913 27.2858 80.6023 29.5547 78.6757 34.0719 73.5108 31.823 73.6022 31.8609 65.2178 28.6127ZM85.0731 31.5012 85.4809 31.679 95.3732 36.4753 98.3627 38.0774 96.0821 42.4228 93.136 40.8443 93.2237 40.8887 83.4198 36.1354 83.5096 36.1767 83.1464 36.0187ZM102.664 40.3819 105.059 41.6658 114.529 47.2414 115.478 47.853 112.863 52.0015 111.954 51.4162 112.036 51.467 102.65 45.9407 102.735 45.9884 100.383 44.7277ZM119.584 50.4967 123.773 53.1937 131.768 58.8023 128.992 62.843 121.036 57.262 121.116 57.3156 116.968 54.6449ZM135.76 61.7825 141.545 66.1911 147.316 70.9571 144.235 74.7657 138.502 70.0304 138.576 70.0898 132.828 65.7099ZM151.122 74.1732 158.302 80.5883 161.998 84.1593 158.635 87.715 154.971 84.1771 155.041 84.2416 147.898 77.8579ZM165.517 87.5584 166.274 88.2898 173.965 96.3138 175.761 98.337 172.137 101.621 170.372 99.6326 170.436 99.7016 162.811 91.7455 162.877 91.8127 162.154 91.1144ZM179.01 102 181.364 104.652 188.462 113.297 188.552 113.416 184.69 116.41 184.628 116.328 184.686 116.401 177.647 107.829 177.708 107.901 175.386 105.283ZM191.515 117.319 195.249 122.238 200.196 129.299 196.223 132.141 191.303 125.119 191.357 125.194 187.652 120.313ZM202.989 133.441 207.852 140.975 210.83 145.999 206.654 148.526 203.7 143.544 203.748 143.623 198.912 136.128ZM213.331 150.218 213.65 150.754 219.098 160.794 220.368 163.36 216.013 165.559 214.765 163.035 214.807 163.118 209.403 153.16 209.449 153.241 209.155 152.746ZM222.544 167.76 224.189 171.087 228.734 181.226 224.3 183.256 219.774 173.159 219.814 173.244 218.189 169.959ZM230.623 185.862 233.258 192.394 235.896 199.721 231.322 201.402 228.7 194.12 228.733 194.208 226.115 187.719ZM237.553 204.445 240.781 214.606 241.895 218.631 237.206 219.954 236.106 215.975 236.132 216.065 232.919 205.949ZM243.205 223.369 243.94 226.029 246.673 237.605 241.937 238.746 239.216 227.216 239.239 227.307 238.516 224.692ZM29.3271 32.3404-0.185669 11.0125 34.4074-0.0481236Z" fill="#000000" fill-rule="evenodd" fill-opacity="0.501961" transform="matrix(-0.52309 0.852277 0.852277 0.52309 3465.23 3111.35)"/><path d="M3572.93 3385.85 3593.84 3466.19 3479.17 3496.71 3458.26 3416.38Z" stroke="#000000" stroke-width="7.85121" stroke-linecap="square" stroke-miterlimit="8" stroke-dasharray="185.287 61.7624" stroke-opacity="0.501961" fill="#FF0000" fill-rule="evenodd" fill-opacity="0.2"/><path d="M3640.7 3444.46 3588.3 3445.13 3577.71 3404.44 3623.65 3378.93Z" stroke="#000000" stroke-width="7.85121" stroke-linecap="square" stroke-miterlimit="8" stroke-dasharray="185.287 61.7624" stroke-opacity="0.501961" fill="#FF0000" fill-rule="evenodd" fill-opacity="0.2"/><rect x="0" y="0" width="82.2149" height="119.803" stroke="#000000" stroke-width="7.85121" stroke-linecap="square" stroke-miterlimit="8" stroke-dasharray="185.287 61.7624" stroke-opacity="0.501961" fill="#FF0000" fill-opacity="0.2" transform="matrix(-0.00444272 0.99999 0.99999 0.00444272 3146.86 3406.2)"/><path d="M0.000682605 51.3676 12.7115-0.00716734 54.3603-0.00716734 67.0714 51.3676Z" stroke="#000000" stroke-width="7.85121" stroke-linecap="square" stroke-miterlimit="8" stroke-dasharray="185.287 61.7624" stroke-opacity="0.501961" fill="#FF0000" fill-rule="evenodd" fill-opacity="0.2" transform="matrix(0.00444272 -0.99999 -0.99999 -0.00444272 3147.42 3479.52)"/><path d="M-0.0252564-0.0177477 181.231 96.1936" stroke="#000000" stroke-width="7.85121" stroke-linecap="square" stroke-miterlimit="8" stroke-dasharray="185.287 61.7624" stroke-opacity="0.501961" fill="#F2F2F2" fill-rule="evenodd" fill-opacity="0.501961" transform="matrix(0.863795 0.503843 0.503843 -0.863795 3265.61 3448.31)"/><path d="M29.0571 13.9627 34.6162 13.9582 43.8317 14.7217 43.4338 19.6242 34.3186 18.8689 34.519 18.8771 29.0612 18.8815ZM48.7905 15.2705 57.3866 16.4231 63.3406 17.5293 62.4604 22.3669 56.5657 21.272 56.6855 21.2915 48.1502 20.1467ZM68.1287 18.4184 68.5174 18.4907 79.4719 21.0983 82.5422 21.9925 81.1934 26.7189 78.1811 25.8414 78.2971 25.8721 67.4601 23.2925 67.5785 23.3174 67.2485 23.2563ZM87.2198 23.355 90.2325 24.2328 100.785 27.8813 101.299 28.0878 99.5005 32.6585 99.0418 32.4742 99.1531 32.5159 88.713 28.9063 88.827 28.9424 85.871 28.0817ZM105.822 29.9053 111.113 32.0305 119.332 35.8081 117.316 40.2856 109.151 36.5327 109.259 36.5794 104.024 34.476ZM123.808 38.0228 131.032 41.7785 136.746 45.1092 134.314 49.3701 128.65 46.0687 128.753 46.1253 121.58 42.3969ZM141.05 47.6489 149.864 53.3715 153.32 55.8592 150.496 59.8658 147.087 57.4122 147.184 57.4777 138.419 51.7868ZM157.286 58.7132 158.834 59.8272 167.484 66.7048 168.942 67.9813 165.752 71.6977 164.339 70.4595 164.428 70.5342 155.869 63.7293 155.962 63.7996 154.461 62.7194ZM172.619 71.2039 175.801 73.9913 183.403 81.3231 180.042 84.8816 172.482 77.5903 172.568 77.6692 169.43 74.9203ZM186.857 84.9532 191.367 89.739 196.719 95.9909 193.036 99.2084 187.724 93.0015 187.803 93.0882 183.333 88.3451ZM199.901 99.8664 205.409 106.966 208.761 111.741 204.789 114.586 201.472 109.859 201.543 109.954 196.07 102.902ZM211.576 115.754 211.819 116.1 217.8 125.566 219.442 128.466 215.216 130.908 213.604 128.06 213.665 128.162 207.748 118.798 207.814 118.897 207.605 118.599ZM221.859 132.736 223.337 135.349 228.414 145.435 228.686 146.049 224.243 148.06 223.996 147.502 224.048 147.611 219.025 137.632 219.082 137.738 217.633 135.178ZM230.676 150.538 233.015 155.813 236.284 164.291 231.748 166.077 228.501 157.656 228.547 157.769 226.233 152.549ZM237.97 169.034 240.726 177.389 242.339 183.239 237.649 184.56 236.053 178.769 236.089 178.886 233.352 170.59ZM243.645 187.978 243.805 188.561 246.346 199.97 246.801 202.636 242.004 203.473 241.559 200.867 241.583 200.989 239.07 189.7 239.1 189.82 238.955 189.298ZM247.628 207.484 248.331 211.603 249.601 222.227 244.769 222.816 243.506 212.255 243.524 212.378 242.831 208.32ZM250.027 227.238 250.445 232.897 250.75 242.076 245.884 242.24 245.581 233.113 245.586 233.213 245.172 227.605ZM32.6746 32.7394-0.141299 17.0969 31.9326-0.0447106Z" fill="#000000" fill-rule="evenodd" fill-opacity="0.501961" transform="matrix(0.735103 0.677955 0.677955 -0.735103 3186.35 3460.17)"/><path d="M3525.64 3075.7 3512.54 3157.72 3395.49 3138.69 3408.59 3056.67Z" stroke="#000000" stroke-width="7.85121" stroke-linecap="square" stroke-miterlimit="8" stroke-dasharray="185.287 61.7624" stroke-opacity="0.501961" fill="#FF0000" fill-rule="evenodd" fill-opacity="0.2"/><path d="M3564.11 3157.05 3515.94 3136.21 3522.58 3094.66 3574.8 3090.14Z" stroke="#000000" stroke-width="7.85121" stroke-linecap="square" stroke-miterlimit="8" stroke-dasharray="185.287 61.7624" stroke-opacity="0.501961" fill="#FF0000" fill-rule="evenodd" fill-opacity="0.2"/><rect x="0" y="0" width="82.2149" height="119.803" stroke="#000000" stroke-width="7.85121" stroke-linecap="square" stroke-miterlimit="8" stroke-dasharray="185.287 61.7624" stroke-opacity="0.501961" fill="#FF0000" fill-opacity="0.2" transform="matrix(-0.409242 0.912426 0.912426 0.409242 3128.45 2919.32)"/><path d="M0.000682605 51.3646 12.7115-0.00989776 54.3603-0.00989776 67.0711 51.3646Z" stroke="#000000" stroke-width="7.85121" stroke-linecap="square" stroke-miterlimit="8" stroke-dasharray="185.287 61.7624" stroke-opacity="0.501961" fill="#FF0000" fill-rule="evenodd" fill-opacity="0.2" transform="matrix(0.409242 -0.912426 -0.912426 -0.409242 3099.24 2986.23)"/><path d="M-0.0255977-0.0201368 181.231 96.1912" stroke="#000000" stroke-width="7.85121" stroke-linecap="square" stroke-miterlimit="8" stroke-dasharray="185.287 61.7624" stroke-opacity="0.501961" fill="#F2F2F2" fill-rule="evenodd" fill-opacity="0.501961" transform="matrix(0.585562 0.810627 0.810627 -0.585562 3219.97 3006.63)"/><path d="M29.0575 13.9603 34.6159 13.9559 43.8314 14.7193 43.4334 19.6218 34.3183 18.8665 34.5193 18.8747 29.0609 18.8791ZM48.7909 15.2682 57.3859 16.4207 63.3409 17.5266 62.4607 22.3645 56.5661 21.2696 56.6859 21.2887 48.1499 20.1443ZM68.1284 18.416 68.5178 18.4883 79.4715 21.0959 82.5419 21.9901 81.1934 26.7165 78.1807 25.839 78.2968 25.8697 67.4598 23.2901 67.5782 23.315 67.2488 23.254ZM87.2195 23.3526 90.2328 24.2304 100.785 27.8789 101.299 28.0854 99.5002 32.6561 99.0415 32.4718 99.1531 32.5135 88.7133 28.9039 88.8273 28.94 85.8713 28.0789ZM105.822 29.9025 111.113 32.0282 119.331 35.8057 117.316 40.2832 109.151 36.5303 109.259 36.577 104.024 34.4736ZM123.808 38.0204 131.031 41.7757 136.746 45.1069 134.313 49.3677 128.65 46.0663 128.753 46.1229 121.581 42.3942ZM141.05 47.6461 149.864 53.3691 153.32 55.8569 150.496 59.8634 147.087 57.4094 147.183 57.4753 138.419 51.7844ZM157.285 58.7105 158.833 59.8245 167.484 66.7024 168.941 67.9789 165.752 71.6953 164.338 70.4571 164.428 70.5318 155.869 63.7266 155.962 63.7969 154.461 62.717ZM172.619 71.2015 175.801 73.9889 183.403 81.3204 180.042 84.8788 172.481 77.5879 172.568 77.6668 169.43 74.9176ZM186.858 84.9505 191.368 89.7366 196.719 95.9882 193.037 99.2057 187.724 92.9984 187.802 93.0858 183.332 88.3427ZM199.901 99.864 205.41 106.963 208.76 111.739 204.79 114.583 201.472 109.856 201.542 109.952 196.07 102.899ZM211.576 115.751 211.819 116.097 217.8 125.563 219.442 128.464 215.216 130.906 213.604 128.057 213.665 128.16 207.748 118.795 207.813 118.894 207.605 118.597ZM221.858 132.734 223.337 135.346 228.413 145.433 228.685 146.047 224.243 148.058 223.996 147.499 224.048 147.608 219.025 137.63 219.082 137.736 217.632 135.176ZM230.676 150.535 233.015 155.811 236.285 164.288 231.749 166.074 228.501 157.654 228.547 157.766 226.234 152.547ZM237.971 169.031 240.726 177.386 242.339 183.237 237.649 184.557 236.053 178.765 236.089 178.883 233.352 170.587ZM243.645 187.976 243.806 188.558 246.345 199.967 246.801 202.634 242.004 203.469 241.559 200.864 241.583 200.986 239.069 189.698 239.099 189.818 238.955 189.295ZM247.628 207.481 248.332 211.601 249.601 222.224 244.769 222.813 243.506 212.253 243.524 212.375 242.831 208.317ZM250.027 227.236 250.445 232.894 250.75 242.072 245.885 242.237 245.581 233.11 245.586 233.21 245.172 227.602ZM32.6749 32.737-0.14164 17.0945 31.9329-0.0470997Z" fill="#000000" fill-rule="evenodd" fill-opacity="0.501961" transform="matrix(0.397359 0.917663 0.917663 -0.397359 3142.72 2985.33)"/><path d="M29.0626 13.6459 40.5071 14.5419 43.7041 14.917 43.142 19.803 39.9918 19.4334 40.0843 19.4423 28.6865 18.5501ZM48.5393 15.4842 60.3573 16.8709 63.1129 17.2873 62.3938 22.1519 59.6767 21.7416 59.7562 21.7522 47.9779 20.3703ZM67.9274 18.0143 79.8293 19.8119 82.4365 20.2952 81.5576 25.1332 78.9903 24.6574 79.0695 24.6707 67.2079 22.8792ZM87.2246 21.1826 98.9064 23.3482 101.65 23.9533 100.612 28.7592 97.9087 28.1629 97.9879 28.1789 86.3457 26.0209ZM106.406 25.0021 117.565 27.4636 120.73 28.2759 119.531 33.0432 116.407 32.2411 116.487 32.2602 105.368 29.808ZM125.448 29.4872 135.783 32.1408 139.647 33.2777 138.286 38.0003 134.462 36.8753 134.543 36.8979 124.249 34.2548ZM144.321 34.6528 153.534 37.3634 158.372 38.975 156.847 43.6464 152.051 42.0484 152.132 42.074 142.96 39.3754ZM162.995 40.5153 170.798 43.1147 176.871 45.3857 175.181 49.9987 169.149 47.7431 169.231 47.7724 161.471 45.1867ZM181.437 47.0929 187.548 49.3779 195.107 52.5288 193.251 57.076 185.733 53.9425 185.817 53.9753 179.747 51.7059ZM199.607 54.4046 203.762 56.1367 213.039 60.4252 211.014 64.8983 201.779 60.6289 201.864 60.6661 197.751 58.9518ZM217.466 62.4716 219.418 63.374 230.619 69.097 228.423 73.4868 217.264 67.7857 217.349 67.827 215.44 66.9447ZM235.039 71.3837 247.797 78.5675 245.427 82.8641 232.67 75.6804ZM252.061 81.1446 262.79 87.7949 264.55 88.9949 261.826 93.0725 260.111 91.9018 260.2 91.9598 249.515 85.3375ZM268.585 91.7465 275.971 96.7834 280.629 100.28 277.727 104.229 273.113 100.765 273.202 100.83 265.862 95.8234ZM284.537 103.213 288.476 106.169 296.066 112.452 292.986 116.257 285.435 110.011 285.526 110.083 281.635 107.161ZM299.833 115.568 300.279 115.935 310.766 125.531 307.501 129.178 297.057 119.622 297.142 119.702 296.753 119.374ZM314.32 129.077 321.677 136.544 324.552 139.791 320.919 143.067 318.094 139.869 318.186 139.967 310.872 132.548ZM327.788 143.461 331.229 147.355 337.191 154.929 333.382 157.99 327.462 150.471 327.554 150.578 324.163 146.736ZM340.285 158.914 347.919 169.908 348.683 171.174 344.527 173.739 343.804 172.54 343.889 172.669 336.299 161.739ZM351.225 175.371 354.999 181.618 358.49 188.348 354.178 190.63 350.729 183.973 350.807 184.115 347.069 177.936ZM360.749 192.704 361.209 193.595 366.52 205.821 366.767 206.524 362.186 208.173 361.967 207.553 362.03 207.717 356.791 195.65 356.861 195.802 356.436 194.988ZM368.403 211.158 370.91 218.279 372.842 225.397 368.148 226.698 366.236 219.667 366.293 219.841 363.815 212.807ZM374.131 230.142 374.344 230.95 376.808 243.817 376.943 245.003 372.106 245.557 371.986 244.466 372.014 244.656 369.585 231.976 369.628 232.159 369.43 231.442ZM377.488 249.89 378.274 256.859 378.536 264.794 373.671 264.958 373.409 257.122 373.423 257.316 372.651 250.445ZM378.699 269.709 378.713 270.058 378.104 283.372 377.948 284.79 373.112 284.264 373.253 282.92 373.246 283.07 373.841 269.93 373.841 270.126 373.834 269.875ZM377.431 289.681 377.353 290.411 376.319 297.359 371.504 296.627 372.531 289.729 372.517 289.833 372.588 289.154ZM31.0961 32.6678-0.276455 14.2487 33.1295-0.0604105Z" fill="#000000" fill-rule="evenodd" fill-opacity="0.501961" transform="matrix(-0.52309 0.852277 0.852277 0.52309 3143.84 2967.88)"/><path d="M29.0605 13.6545 39.6447 14.4699 43.6993 14.9385 43.1461 19.8256 39.1371 19.3621 39.2293 19.371 28.6902 18.559ZM48.5363 15.4979 59.0941 16.7187 63.1061 17.3146 62.3972 22.1812 58.4252 21.5908 58.5023 21.601 47.9823 20.385ZM67.9219 18.0303 78.1869 19.5553 82.4259 20.3276 81.5627 25.1683 77.362 24.4031 77.4398 24.4161 67.2137 22.897ZM87.2167 21.2 96.9067 22.9649 101.637 23.9891 100.617 28.7988 95.9254 27.783 96.0039 27.7987 86.3536 26.041ZM106.397 25.0195 115.232 26.9322 120.714 28.3124 119.537 33.0855 114.093 31.7148 114.172 31.7333 105.377 29.8295ZM125.437 29.5018 133.139 31.4411 139.629 33.3121 138.293 38.0422 131.842 36.1828 131.922 36.204 124.26 34.275ZM144.31 34.6616 150.606 36.4767 158.353 39.0034 156.857 43.6843 149.151 41.1706 149.231 41.1952 142.975 39.3918ZM162.986 40.5143 167.611 42.0229 176.853 45.4028 175.197 50.0281 165.994 46.6629 166.075 46.6905 161.49 45.1953ZM181.431 47.0769 184.131 48.0642 195.094 52.5295 193.274 57.0917 182.352 52.6432 182.433 52.6746 179.773 51.7022ZM199.609 54.3684 200.143 54.5859 213.033 60.4027 211.048 64.8942 198.199 59.0958 198.281 59.1313 197.788 58.9306ZM217.529 62.5201 230.554 69.0076 230.71 69.0933 228.389 73.4165 228.274 73.3537 228.359 73.3981 215.376 66.9325ZM234.989 71.439 244.907 76.8767 247.844 78.6456 245.351 82.8706 242.457 81.1272 242.542 81.1764 232.667 75.7626ZM252.025 81.1651 258.663 85.1648 264.5 89.027 261.834 93.1424 256.039 89.3083 256.126 89.3632 249.532 85.3898ZM268.573 91.7223 271.798 93.8564 280.611 100.261 277.768 104.255 268.999 97.8811 269.087 97.9418 265.906 95.837ZM284.64 103.216 296.117 112.39 296.18 112.449 292.98 116.156 292.959 116.136 293.051 116.211 281.619 107.074ZM299.848 115.681 307.255 122.202 310.781 125.643 307.403 129.184 303.919 125.785 304.004 125.868 296.655 119.388ZM314.286 129.057 317.677 132.357 324.517 139.761 320.963 143.118 314.158 135.761 314.25 135.853 310.908 132.598ZM327.902 143.486 336.293 153.637 337.277 154.978 333.368 157.909 332.427 156.625 332.512 156.737 324.163 146.641ZM340.18 158.928 344.443 164.732 348.592 171.165 344.514 173.851 340.407 167.481 340.492 167.603 336.272 161.86ZM351.254 175.285 351.785 176.111 358.293 187.757 358.604 188.401 354.214 190.531 353.945 189.961 354.016 190.105 347.587 178.598 347.665 178.732 347.176 177.971ZM360.707 192.835 363.95 199.655 366.648 206.494 362.123 208.313 359.461 201.553 359.525 201.708 356.324 194.965ZM368.446 211.064 368.73 211.789 372.603 224.142 372.922 225.482 368.185 226.617 367.887 225.366 367.937 225.541 364.113 213.36 364.177 213.526 363.922 212.883ZM374.04 230.268 375.555 236.698 376.844 244.93 372.036 245.699 370.762 237.558 370.797 237.742 369.303 231.403ZM377.595 249.981 378.572 262.344 378.572 264.89 373.708 264.899 373.7 262.449 373.708 262.64 372.737 250.373ZM378.579 269.809 378.593 275.303 373.722 275.311 373.714 269.818ZM31.0998 32.6759-0.275772 14.2613 33.1292-0.0525606Z" fill="#000000" fill-rule="evenodd" fill-opacity="0.501961" transform="matrix(-0.0731216 0.997323 0.997323 0.0731216 3180.79 3449.83)"/></g></svg>