<svg width="711" height="304" xmlns="http://www.w3.org/2000/svg" xmlns:xlink="http://www.w3.org/1999/xlink" xml:space="preserve" overflow="hidden"><defs><clipPath id="clip0"><rect x="1675" y="3546" width="711" height="304"/></clipPath><clipPath id="clip1"><rect x="1781" y="3606" width="584" height="202"/></clipPath><clipPath id="clip2"><rect x="1781" y="3606" width="584" height="202"/></clipPath></defs><g clip-path="url(#clip0)" transform="translate(-1675 -3546)"><path d="M0 0 710.183 0 710.183 304.364 0 304.364Z" fill="#FFFFFF" transform="matrix(1.00066 0 0 -1 1675 3850.37)"/><path d="M106.528 42.611 688.878 42.611 688.878 243.491 106.528 243.491Z" fill="#FFFFFF" transform="matrix(1.00066 0 0 -1 1675 3850.37)"/><g><path d="M132.998 42.611 194.084 42.611 194.084 163.521 132.998 163.521Z" stroke="#333333" stroke-width="2.25455" stroke-miterlimit="10" fill="#DE8F05" transform="matrix(1.00066 0 0 -1 1675 3850.37)"/></g><g><path d="M336.616 42.611 397.703 42.611 397.703 113.376 336.616 113.376Z" stroke="#333333" stroke-width="2.25455" stroke-miterlimit="10" fill="#DE8F05" transform="matrix(1.00066 0 0 -1 1675 3850.37)"/></g><g><path d="M540.235 42.611 601.322 42.611 601.322 85.0132 540.235 85.0132Z" stroke="#333333" stroke-width="2.25455" stroke-miterlimit="10" fill="#DE8F05" transform="matrix(1.00066 0 0 -1 1675 3850.37)"/></g><g><path d="M194.084 42.611 255.169 42.611 255.169 116.434 194.084 116.434Z" stroke="#333333" stroke-width="2.25455" stroke-miterlimit="10" fill="#0173B2" transform="matrix(1.00066 0 0 -1 1675 3850.37)"/></g><g><path d="M397.703 42.611 458.79 42.611 458.79 97.5688 397.703 97.5688Z" stroke="#333333" stroke-width="2.25455" stroke-miterlimit="10" fill="#0173B2" transform="matrix(1.00066 0 0 -1 1675 3850.37)"/></g><g><path d="M601.322 42.611 662.407 42.611 662.407 134.264 601.322 134.264Z" stroke="#333333" stroke-width="2.25455" stroke-miterlimit="10" fill="#0173B2" transform="matrix(1.00066 0 0 -1 1675 3850.37)"/></g><path d="M194.084 42.611 194.084 32.7473" stroke="#000000" stroke-width="2.81819" stroke-linejoin="round" stroke-miterlimit="10" fill="none" transform="matrix(1.00066 0 0 -1 1675 3850.37)"/><text font-family="Arial,Arial_MSFontService,sans-serif" font-weight="400" font-size="7" transform="matrix(2.82004 0 0 2.81819 1841.21 3842)">Radial</text><path d="M397.703 42.611 397.703 32.7473" stroke="#000000" stroke-width="2.81819" stroke-linejoin="round" stroke-miterlimit="10" fill="none" transform="matrix(1.00066 0 0 -1 1675 3850.37)"/><text font-family="Arial,Arial_MSFontService,sans-serif" font-weight="400" font-size="7" transform="matrix(2.82004 0 0 2.81819 2027.91 3842)">T</text><text font-family="Arial,Arial_MSFontService,sans-serif" font-weight="400" font-size="7" transform="matrix(2.82004 0 0 2.81819 2037.81 3842)">angential</text><path d="M601.322 42.611 601.322 32.7473" stroke="#000000" stroke-width="2.81819" stroke-linejoin="round" stroke-miterlimit="10" fill="none" transform="matrix(1.00066 0 0 -1 1675 3850.37)"/><text font-family="Arial,Arial_MSFontService,sans-serif" font-weight="400" font-size="7" transform="matrix(2.82004 0 0 2.81819 2271.79 3842)">z</text><path d="M106.528 42.611 96.6638 42.611" stroke="#000000" stroke-width="2.81819" stroke-linejoin="round" stroke-miterlimit="10" fill="none" transform="matrix(1.00066 0 0 -1 1675 3850.37)"/><text font-family="Arial,Arial_MSFontService,sans-serif" font-weight="400" font-size="7" transform="matrix(2.82004 0 0 2.81819 1712.48 3815)">0</text><text font-family="Arial,Arial_MSFontService,sans-serif" font-weight="400" font-size="7" transform="matrix(2.82004 0 0 2.81819 1723.45 3815)">.</text><text font-family="Arial,Arial_MSFontService,sans-serif" font-weight="400" font-size="7" transform="matrix(2.82004 0 0 2.81819 1728.94 3815)">000</text><path d="M106.528 91.8329 96.6638 91.8329" stroke="#000000" stroke-width="2.81819" stroke-linejoin="round" stroke-miterlimit="10" fill="none" transform="matrix(1.00066 0 0 -1 1675 3850.37)"/><text font-family="Arial,Arial_MSFontService,sans-serif" font-weight="400" font-size="7" transform="matrix(2.82004 0 0 2.81819 1712.48 3766)">0</text><text font-family="Arial,Arial_MSFontService,sans-serif" font-weight="400" font-size="7" transform="matrix(2.82004 0 0 2.81819 1723.45 3766)">.</text><text font-family="Arial,Arial_MSFontService,sans-serif" font-weight="400" font-size="7" transform="matrix(2.82004 0 0 2.81819 1728.94 3766)">002</text><path d="M106.528 141.055 96.6638 141.055" stroke="#000000" stroke-width="2.81819" stroke-linejoin="round" stroke-miterlimit="10" fill="none" transform="matrix(1.00066 0 0 -1 1675 3850.37)"/><text font-family="Arial,Arial_MSFontService,sans-serif" font-weight="400" font-size="7" transform="matrix(2.82004 0 0 2.81819 1712.48 3716)">0</text><text font-family="Arial,Arial_MSFontService,sans-serif" font-weight="400" font-size="7" transform="matrix(2.82004 0 0 2.81819 1723.45 3716)">.</text><text font-family="Arial,Arial_MSFontService,sans-serif" font-weight="400" font-size="7" transform="matrix(2.82004 0 0 2.81819 1728.94 3716)">004</text><path d="M106.528 190.277 96.6638 190.277" stroke="#000000" stroke-width="2.81819" stroke-linejoin="round" stroke-miterlimit="10" fill="none" transform="matrix(1.00066 0 0 -1 1675 3850.37)"/><text font-family="Arial,Arial_MSFontService,sans-serif" font-weight="400" font-size="7" transform="matrix(2.82004 0 0 2.81819 1712.48 3667)">0</text><text font-family="Arial,Arial_MSFontService,sans-serif" font-weight="400" font-size="7" transform="matrix(2.82004 0 0 2.81819 1723.45 3667)">.</text><text font-family="Arial,Arial_MSFontService,sans-serif" font-weight="400" font-size="7" transform="matrix(2.82004 0 0 2.81819 1728.94 3667)">006</text><path d="M106.528 239.499 96.6638 239.499" stroke="#000000" stroke-width="2.81819" stroke-linejoin="round" stroke-miterlimit="10" fill="none" transform="matrix(1.00066 0 0 -1 1675 3850.37)"/><text font-family="Arial,Arial_MSFontService,sans-serif" font-weight="400" font-size="7" transform="matrix(2.82004 0 0 2.81819 1712.48 3618)">0</text><text font-family="Arial,Arial_MSFontService,sans-serif" font-weight="400" font-size="7" transform="matrix(2.82004 0 0 2.81819 1723.45 3618)">.</text><text font-family="Arial,Arial_MSFontService,sans-serif" font-weight="400" font-size="7" transform="matrix(2.82004 0 0 2.81819 1728.94 3618)">008</text><text font-family="Arial,Arial_MSFontService,sans-serif" font-weight="400" font-size="8" transform="matrix(0 -2.81819 2.82004 0 1696.69 3798)">Ratio of abs</text><text font-family="Arial,Arial_MSFontService,sans-serif" font-weight="400" font-size="8" transform="matrix(0 -2.81819 2.82004 0 1696.69 3677)">. </text><text font-family="Arial,Arial_MSFontService,sans-serif" font-weight="400" font-size="8" transform="matrix(0 -2.81819 2.82004 0 1696.69 3665)">error</text><g><path d="M163.541 93.1713 163.541 233.87" stroke="#333333" stroke-width="2.81819" stroke-linejoin="round" stroke-miterlimit="10" fill="none" transform="matrix(1.00066 0 0 -1 1675 3850.37)"/></g><g><path d="M367.159 50.3241 367.159 176.427" stroke="#333333" stroke-width="2.81819" stroke-linejoin="round" stroke-miterlimit="10" fill="none" transform="matrix(1.00066 0 0 -1 1675 3850.37)"/></g><g><path d="M570.779 56.8271 570.779 113.199" stroke="#333333" stroke-width="2.81819" stroke-linejoin="round" stroke-miterlimit="10" fill="none" transform="matrix(1.00066 0 0 -1 1675 3850.37)"/></g><g><path d="M170.586 93.1713 156.495 93.1713" stroke="#333333" stroke-width="2.81819" stroke-linejoin="round" stroke-miterlimit="10" fill="none" transform="matrix(1.00066 0 0 -1 1675 3850.37)"/></g><g><path d="M374.205 50.3241 360.114 50.3241" stroke="#333333" stroke-width="2.81819" stroke-linejoin="round" stroke-miterlimit="10" fill="none" transform="matrix(1.00066 0 0 -1 1675 3850.37)"/></g><g><path d="M577.824 56.8271 563.733 56.8271" stroke="#333333" stroke-width="2.81819" stroke-linejoin="round" stroke-miterlimit="10" fill="none" transform="matrix(1.00066 0 0 -1 1675 3850.37)"/></g><g><path d="M170.586 233.87 156.495 233.87" stroke="#333333" stroke-width="2.81819" stroke-linejoin="round" stroke-miterlimit="10" fill="none" transform="matrix(1.00066 0 0 -1 1675 3850.37)"/></g><g><path d="M374.205 176.427 360.114 176.427" stroke="#333333" stroke-width="2.81819" stroke-linejoin="round" stroke-miterlimit="10" fill="none" transform="matrix(1.00066 0 0 -1 1675 3850.37)"/></g><g><path d="M577.824 113.199 563.733 113.199" stroke="#333333" stroke-width="2.81819" stroke-linejoin="round" stroke-miterlimit="10" fill="none" transform="matrix(1.00066 0 0 -1 1675 3850.37)"/></g><g><path d="M224.626 49.2321 224.626 183.636" stroke="#333333" stroke-width="2.81819" stroke-linejoin="round" stroke-miterlimit="10" fill="none" transform="matrix(1.00066 0 0 -1 1675 3850.37)"/></g><g clip-path="url(#clip1)"><path d="M428.246 41.4426 428.246 153.695" stroke="#333333" stroke-width="2.81819" stroke-linejoin="round" stroke-miterlimit="10" fill="none" transform="matrix(1.00066 0 0 -1 1675 3850.37)"/></g><g><path d="M631.866 53.0003 631.866 215.528" stroke="#333333" stroke-width="2.81819" stroke-linejoin="round" stroke-miterlimit="10" fill="none" transform="matrix(1.00066 0 0 -1 1675 3850.37)"/></g><g><path d="M231.672 49.2321 217.581 49.2321" stroke="#333333" stroke-width="2.81819" stroke-linejoin="round" stroke-miterlimit="10" fill="none" transform="matrix(1.00066 0 0 -1 1675 3850.37)"/></g><g clip-path="url(#clip2)"><path d="M435.292 41.4426 421.201 41.4426" stroke="#333333" stroke-width="2.81819" stroke-linejoin="round" stroke-miterlimit="10" fill="none" transform="matrix(1.00066 0 0 -1 1675 3850.37)"/></g><g><path d="M638.911 53.0003 624.82 53.0003" stroke="#333333" stroke-width="2.81819" stroke-linejoin="round" stroke-miterlimit="10" fill="none" transform="matrix(1.00066 0 0 -1 1675 3850.37)"/></g><g><path d="M231.672 183.636 217.581 183.636" stroke="#333333" stroke-width="2.81819" stroke-linejoin="round" stroke-miterlimit="10" fill="none" transform="matrix(1.00066 0 0 -1 1675 3850.37)"/></g><g><path d="M435.292 153.695 421.201 153.695" stroke="#333333" stroke-width="2.81819" stroke-linejoin="round" stroke-miterlimit="10" fill="none" transform="matrix(1.00066 0 0 -1 1675 3850.37)"/></g><g><path d="M638.911 215.528 624.82 215.528" stroke="#333333" stroke-width="2.81819" stroke-linejoin="round" stroke-miterlimit="10" fill="none" transform="matrix(1.00066 0 0 -1 1675 3850.37)"/></g><path d="M106.528 42.611 106.528 243.491" stroke="#000000" stroke-width="2.81819" stroke-linecap="square" stroke-miterlimit="10" fill="none" transform="matrix(1.00066 0 0 -1 1675 3850.37)"/><path d="M106.528 42.611 688.878 42.611" stroke="#000000" stroke-width="2.81819" stroke-linecap="square" stroke-miterlimit="10" fill="none" transform="matrix(1.00066 0 0 -1 1675 3850.37)"/><path d="M278.539 259.442 693.218 259.442 693.218 293.72 278.539 293.72Z" stroke="#CCCCCC" stroke-width="2.81819" stroke-miterlimit="10" stroke-opacity="0.8" fill="#FFFFFF" fill-opacity="0.8" transform="matrix(1.00066 0 0 -1 1675 3850.37)"/><path d="M286.429 271.473 325.884 271.473 325.884 285.282 286.429 285.282Z" stroke="#333333" stroke-width="2.81819" stroke-miterlimit="10" fill="#DE8F05" transform="matrix(1.00066 0 0 -1 1675 3850.37)"/><text font-family="Arial,Arial_MSFontService,sans-serif" font-weight="400" font-size="7" transform="matrix(2.82004 0 0 2.81819 2016.89 3579)">Camera rig</text><path d="M478.7 271.473 518.155 271.473 518.155 285.282 478.7 285.282Z" stroke="#333333" stroke-width="2.81819" stroke-miterlimit="10" fill="#0173B2" transform="matrix(1.00066 0 0 -1 1675 3850.37)"/><text font-family="Arial,Arial_MSFontService,sans-serif" font-weight="400" font-size="7" transform="matrix(2.82004 0 0 2.81819 2209.29 3579)">Full</text><text font-family="Arial,Arial_MSFontService,sans-serif" font-weight="400" font-size="7" transform="matrix(2.82004 0 0 2.81819 2241.1 3579)">-</text><text font-family="Arial,Arial_MSFontService,sans-serif" font-weight="400" font-size="7" transform="matrix(2.82004 0 0 2.81819 2247.68 3579)">scale vehicle</text></g></svg>