<svg width="1082" height="1063" xmlns="http://www.w3.org/2000/svg" xmlns:xlink="http://www.w3.org/1999/xlink" xml:space="preserve" overflow="hidden"><g transform="translate(-283 -2860)"><path d="M590.873 3381.52 632.968 3338.94 692.873 3400.36 651.587 3442.94Z" stroke="#000000" stroke-width="7.85085" stroke-miterlimit="8" fill="#D9D9D9" fill-rule="evenodd"/><path d="M602.238 3317.95 621.875 3350.67 600.602 3371.95 567.874 3352.31Z" stroke="#000000" stroke-width="7.85085" stroke-miterlimit="8" fill="#D9D9D9" fill-rule="evenodd"/><path d="M854.861 3447.13 849.997 3506.94 764.861 3498.74 769.726 3438.94Z" stroke="#000000" stroke-width="7.85085" stroke-miterlimit="8" fill="#D9D9D9" fill-rule="evenodd"/><path d="M886.881 3503.94 851.86 3490.87 854.248 3460.65 890.86 3454.94Z" stroke="#000000" stroke-width="7.85085" stroke-miterlimit="8" fill="#D9D9D9" fill-rule="evenodd"/><path d="M675.868 3422.94 766.868 3468.94" stroke="#000000" stroke-width="7.85085" stroke-miterlimit="8" fill="none" fill-rule="evenodd"/><path d="M892.532 2865.95 1358.85 3336.05 1115.17 3582.95 648.849 3112.04Z" stroke="#000000" stroke-width="7.85085" stroke-miterlimit="8" fill="none" fill-rule="evenodd"/><path d="M892.454 2865.97 919.857 2893.88 892.454 2920.97 865.857 2893.88Z" fill-rule="evenodd"/><path d="M947.353 2921.97 974.853 2948.57 947.353 2975.97 919.853 2948.57Z" fill-rule="evenodd"/><path d="M1002.35 2975.97 1029.85 3003.97 1002.35 3031.97 974.849 3003.97Z" fill-rule="evenodd"/><path d="M1057.35 3031.96 1084.85 3059.96 1057.35 3087.96 1029.85 3059.96Z" fill-rule="evenodd"/><path d="M892.454 2920.97 919.857 2948.47 892.454 2975.97 865.857 2948.47Z" fill-rule="evenodd"/><path d="M947.451 2975.97 974.854 3003.97 947.451 3031.97 920.853 3003.97Z" fill-rule="evenodd"/><path d="M1002.35 3031.96 1029.85 3059.96 1002.35 3087.96 974.849 3059.96Z" fill-rule="evenodd"/><path d="M1057.35 3087.96 1084.85 3114.56 1057.35 3141.96 1029.85 3114.56Z" fill-rule="evenodd"/><path d="M838.36 2920.97 865.86 2948.47 838.36 2975.97 810.86 2948.47Z" fill-rule="evenodd"/><path d="M893.356 2975.97 920.857 3003.97 893.356 3031.97 865.856 3003.97Z" fill-rule="evenodd"/><path d="M948.353 3031.96 975.853 3059.87 948.353 3086.96 920.853 3059.87Z" fill-rule="evenodd"/><path d="M1003.35 3086.96 1030.85 3114.46 1003.35 3141.96 975.849 3114.46Z" fill-rule="evenodd"/><path d="M838.36 2975.97 865.86 3003.97 838.36 3031.97 810.86 3003.97Z" fill-rule="evenodd"/><path d="M893.356 3031.96 920.857 3059.87 893.356 3086.96 865.856 3059.87Z" fill-rule="evenodd"/><path d="M948.353 3087.96 975.853 3114.56 948.353 3141.96 920.853 3114.56Z" fill-rule="evenodd"/><path d="M1002.35 3141.96 1029.85 3169.96 1002.35 3197.96 974.849 3169.96Z" fill-rule="evenodd"/><path d="M1112.34 3086.96 1139.84 3114.46 1112.34 3141.96 1084.84 3114.46Z" fill-rule="evenodd"/><path d="M1167.34 3141.96 1194.84 3169.96 1167.34 3197.96 1139.84 3169.96Z" fill-rule="evenodd"/><path d="M1222.34 3197.95 1249.84 3225.95 1222.34 3253.95 1194.83 3225.95Z" fill-rule="evenodd"/><path d="M1277.33 3253.95 1304.83 3280.55 1277.33 3307.95 1249.83 3280.55Z" fill-rule="evenodd"/><path d="M1112.34 3141.96 1139.84 3169.96 1112.34 3197.96 1084.84 3169.96Z" fill-rule="evenodd"/><path d="M1167.34 3197.95 1194.84 3225.95 1167.34 3253.95 1139.84 3225.95Z" fill-rule="evenodd"/><path d="M1222.34 3253.95 1249.84 3281.35 1222.34 3307.95 1194.83 3281.35Z" fill-rule="evenodd"/><path d="M1276.43 3307.95 1303.83 3335.95 1276.43 3363.95 1249.83 3335.95Z" fill-rule="evenodd"/><path d="M1057.35 3141.96 1084.85 3169.96 1057.35 3197.96 1029.85 3169.96Z" fill-rule="evenodd"/><path d="M1112.75 3197.95 1139.84 3225.04 1112.75 3252.95 1084.84 3225.04Z" fill-rule="evenodd"/><path d="M1166.93 3252.95 1194.84 3280.45 1166.93 3307.95 1139.84 3280.45Z" fill-rule="evenodd"/><path d="M1221.92 3307.95 1249.83 3335.95 1221.92 3363.95 1194.83 3335.95Z" fill-rule="evenodd"/><path d="M1057.35 3197.95 1084.85 3225.04 1057.35 3252.95 1029.85 3225.04Z" fill-rule="evenodd"/><path d="M1112.75 3252.95 1139.84 3280.45 1112.75 3307.95 1084.84 3280.45Z" fill-rule="evenodd"/><path d="M1166.93 3307.95 1194.84 3335.95 1166.93 3363.95 1139.84 3335.95Z" fill-rule="evenodd"/><path d="M1222.34 3363.94 1249.84 3391.85 1222.34 3418.94 1194.83 3391.85Z" fill-rule="evenodd"/><path d="M786.363 2973.97 813.864 3001.97 786.363 3029.97 758.863 3001.97Z" fill-rule="evenodd"/><path d="M841.36 3029.96 868.86 3057.46 841.36 3084.96 813.86 3057.46Z" fill-rule="evenodd"/><path d="M895.454 3084.96 922.857 3112.96 895.454 3140.96 868.857 3112.96Z" fill-rule="evenodd"/><path d="M951.256 3140.96 977.853 3167.55 951.256 3194.96 923.853 3167.55Z" fill-rule="evenodd"/><path d="M786.363 3029.96 813.864 3057.46 786.363 3084.96 758.863 3057.46Z" fill-rule="evenodd"/><path d="M841.36 3084.96 868.86 3112.96 841.36 3140.96 813.86 3112.96Z" fill-rule="evenodd"/><path d="M896.26 3140.96 922.857 3168.36 896.26 3194.96 868.857 3168.36Z" fill-rule="evenodd"/><path d="M950.353 3194.95 977.853 3222.95 950.353 3250.95 922.853 3222.95Z" fill-rule="evenodd"/><path d="M1005.25 3194.95 1031.85 3222.95 1005.25 3250.95 977.85 3222.95Z" fill-rule="evenodd"/><path d="M1059.44 3250.95 1086.85 3278.95 1059.44 3306.95 1032.85 3278.95Z" fill-rule="evenodd"/><path d="M1114.34 3306.95 1141.84 3333.54 1114.34 3360.95 1086.84 3333.54Z" fill-rule="evenodd"/><path d="M1169.34 3360.94 1196.84 3388.94 1169.34 3416.94 1141.84 3388.94Z" fill-rule="evenodd"/><path d="M1005.25 3250.95 1031.85 3278.86 1005.25 3305.95 977.85 3278.86Z" fill-rule="evenodd"/><path d="M1059.44 3306.95 1086.85 3333.54 1059.44 3360.95 1032.85 3333.54Z" fill-rule="evenodd"/><path d="M1114.34 3360.94 1141.84 3388.94 1114.34 3416.94 1086.84 3388.94Z" fill-rule="evenodd"/><path d="M1169.34 3416.94 1196.84 3444.94 1169.34 3472.94 1141.84 3444.94Z" fill-rule="evenodd"/><path d="M1331.43 3308.95 1358.83 3336.04 1331.43 3363.95 1304.83 3336.04Z" fill-rule="evenodd"/><path d="M1277.33 3363.94 1304.83 3391.44 1277.33 3418.94 1249.83 3391.44Z" fill-rule="evenodd"/><path d="M1224.33 3416.94 1251.83 3444.94 1224.33 3472.94 1196.83 3444.94Z" fill-rule="evenodd"/><path d="M730.955 3029.96 758.865 3057.37 730.955 3083.97 703.865 3057.37Z" fill-rule="evenodd"/><path d="M786.363 3084.96 813.864 3112.05 786.363 3139.96 758.863 3112.05Z" fill-rule="evenodd"/><path d="M841.36 3139.96 868.86 3167.46 841.36 3194.96 813.86 3167.46Z" fill-rule="evenodd"/><path d="M896.357 3194.95 923.857 3222.95 896.357 3250.95 868.856 3222.95Z" fill-rule="evenodd"/><path d="M730.955 3083.96 758.865 3111.96 730.955 3139.96 703.865 3111.96Z" fill-rule="evenodd"/><path d="M786.363 3139.96 813.864 3167.46 786.363 3194.96 758.863 3167.46Z" fill-rule="evenodd"/><path d="M841.36 3194.95 868.86 3222.95 841.36 3250.95 813.86 3222.95Z" fill-rule="evenodd"/><path d="M896.26 3250.95 922.857 3278.86 896.26 3305.95 868.857 3278.86Z" fill-rule="evenodd"/><path d="M950.353 3249.95 977.853 3277.95 950.353 3305.95 922.853 3277.95Z" fill-rule="evenodd"/><path d="M1005.35 3305.95 1032.85 3333.45 1005.35 3360.95 977.849 3333.45Z" fill-rule="evenodd"/><path d="M1060.35 3360.94 1087.85 3388.94 1060.35 3416.94 1032.85 3388.94Z" fill-rule="evenodd"/><path d="M1115.34 3416.94 1142.84 3444.85 1115.34 3471.94 1087.84 3444.85Z" fill-rule="evenodd"/><path d="M950.353 3305.95 977.853 3333.45 950.353 3360.95 922.853 3333.45Z" fill-rule="evenodd"/><path d="M1005.35 3360.94 1032.85 3388.94 1005.35 3416.94 977.849 3388.94Z" fill-rule="evenodd"/><path d="M1060.35 3416.94 1087.85 3444.94 1060.35 3472.94 1032.85 3444.94Z" fill-rule="evenodd"/><path d="M1114.34 3471.94 1141.84 3499.44 1114.34 3526.94 1086.84 3499.44Z" fill-rule="evenodd"/><path d="M1169.34 3472.94 1196.84 3500.34 1169.34 3526.94 1141.84 3500.34Z" fill-rule="evenodd"/><path d="M676.779 3084.96 703.869 3112.87 676.779 3139.96 648.869 3112.87Z" fill-rule="evenodd"/><path d="M731.367 3139.96 758.867 3167.46 731.367 3194.96 703.867 3167.46Z" fill-rule="evenodd"/><path d="M786.363 3194.95 813.864 3222.95 786.363 3250.95 758.863 3222.95Z" fill-rule="evenodd"/><path d="M841.36 3250.95 868.86 3278.95 841.36 3306.95 813.86 3278.95Z" fill-rule="evenodd"/><path d="M895.357 3305.95 922.857 3333.45 895.357 3360.95 867.856 3333.45Z" fill-rule="evenodd"/><path d="M950.353 3360.94 977.853 3388.94 950.353 3416.94 922.853 3388.94Z" fill-rule="evenodd"/><path d="M1005.35 3416.94 1032.85 3444.94 1005.35 3472.94 977.849 3444.94Z" fill-rule="evenodd"/><path d="M1060.35 3472.94 1087.85 3499.53 1060.35 3526.94 1032.85 3499.53Z" fill-rule="evenodd"/><path d="M1114.44 3527.93 1141.84 3555.02 1114.44 3582.93 1087.84 3555.02Z" fill-rule="evenodd"/><path d="M675.994 3316 734.994 3316 734.994 3402 675.994 3402Z" fill="#F2F2F2" fill-rule="evenodd"/><path d="M673.002 3402.54 673.002 3386.11 678.689 3386.11 678.689 3402.54ZM673.002 3380.37 673.002 3363.94 678.689 3363.94 678.689 3380.37ZM673.002 3358.19 673.002 3341.76 678.689 3341.76 678.689 3358.19ZM673.002 3336.01 673.002 3319.58 678.689 3319.58 678.689 3336.01ZM677.876 3313.01 694.126 3313.01 694.126 3318.76 677.876 3318.76ZM699.814 3313.01 716.064 3313.01 716.064 3318.76 699.814 3318.76ZM721.751 3313.01 738.001 3313.01 738.001 3317.94 732.314 3317.94 732.314 3315.47 735.564 3318.76 721.751 3318.76ZM738.001 3323.69 738.001 3340.12 732.314 3340.12 732.314 3323.69ZM738.001 3345.86 738.001 3362.29 732.314 3362.29 732.314 3345.86ZM738.001 3368.04 738.001 3384.47 732.314 3384.47 732.314 3368.04ZM738.001 3390.22 738.001 3405.01 731.502 3405.01 731.502 3400.08 735.564 3400.08 732.314 3402.54 732.314 3390.22ZM725.814 3405.01 709.564 3405.01 709.564 3400.08 725.814 3400.08ZM703.877 3405.01 687.626 3405.01 687.626 3400.08 703.877 3400.08ZM681.939 3405.01 676.251 3405.01 676.251 3400.08 681.939 3400.08Z" fill-rule="evenodd"/><path d="M728.868 3278.95 719.884 3315.95 688.851 3315.95 679.867 3278.95Z" fill="#F2F2F2" fill-rule="evenodd"/><path d="M680.42 3276 696.539 3276 696.539 3280.96 680.42 3280.96ZM702.181 3276 718.3 3276 718.3 3280.96 702.181 3280.96ZM723.942 3276 732.002 3276 728.778 3290.89 723.136 3289.23 726.36 3277.66 728.778 3280.96 723.942 3280.96ZM727.166 3295.85 723.136 3312.39 718.3 3310.73 721.524 3295.02ZM718.3 3319 702.181 3319 702.181 3313.22 718.3 3313.22ZM696.539 3319 687.673 3319 684.449 3307.43 690.091 3306.6 692.509 3315.7 689.286 3313.22 696.539 3313.22ZM683.644 3302.46 679.614 3285.93 684.449 3284.27 688.479 3300.81ZM678.002 3280.14 678.002 3279.31 682.837 3277.66 683.644 3279.31Z" fill-rule="evenodd"/><path d="M816.865 3550.44 771.704 3588.93 716.865 3523.42 762.026 3484.93Z" fill="#F2F2F2" fill-rule="evenodd"/><path d="M764.189 3482 774.789 3495.16 770.712 3498.45 760.112 3486.11ZM778.05 3499.27 788.65 3512.42 784.573 3515.71 773.973 3502.56ZM791.912 3516.54 802.512 3528.87 798.435 3532.98 787.835 3519.82ZM806.589 3532.98 817.189 3546.14 813.112 3549.42 802.512 3537.09ZM818.004 3553.54 804.958 3564.22 801.697 3560.11 813.927 3549.42ZM800.881 3568.34 787.835 3579.02 784.573 3574.91 797.62 3564.22ZM783.758 3582.31 771.527 3593 767.45 3588.89 772.343 3585.6 773.973 3587.25 769.896 3587.25 780.496 3578.2ZM764.189 3584.78 753.589 3572.45 757.665 3568.34 768.266 3581.49ZM750.327 3568.34 739.727 3555.18 743.804 3551.89 754.404 3564.22ZM736.466 3551.07 725.865 3537.91 729.942 3534.62 740.542 3547.78ZM721.788 3533.8 712.004 3522.29 717.712 3518.18 720.973 3522.29 717.712 3524.76 718.527 3520.65 725.865 3530.51ZM721.788 3514.07 734.835 3503.38 738.096 3508.31 725.05 3519ZM738.912 3500.09 751.142 3489.4 755.219 3493.51 742.173 3504.2ZM755.219 3486.11 760.112 3482 763.373 3486.11 759.296 3490.22Z" fill-rule="evenodd"/><path d="M799.924 3612.93 783.863 3578.57 806.348 3558.93 836.863 3581.84Z" fill="#F2F2F2" fill-rule="evenodd"/><path d="M839.007 3583.66 826.833 3594.23 822.775 3590.17 835.76 3579.59ZM821.963 3598.3 809.789 3608.87 806.543 3603.99 818.717 3593.42ZM805.731 3612.13 799.238 3617.01 792.746 3603.99 797.615 3601.55 802.485 3612.13 798.427 3611.31 801.673 3608.06ZM790.311 3599.11 783.006 3583.66 787.876 3582.03 795.18 3596.67ZM783.006 3576.34 795.18 3565.77 798.427 3569.83 786.253 3580.41ZM799.238 3561.7 806.543 3556.01 815.47 3562.51 812.224 3567.39 804.92 3561.7 808.166 3561.7 803.296 3566.58ZM820.34 3565.77 833.325 3575.53 830.079 3580.41 817.093 3570.65ZM838.195 3578.78 839.007 3579.59 835.76 3583.66 834.948 3583.66Z" fill-rule="evenodd"/><path d="M708.959 3405 714.742 3420.42 708.959 3422.04 704.003 3406.62ZM716.394 3425.29 721.351 3440.71 716.394 3443.14 710.612 3426.91ZM723.003 3446.39 728.785 3461.81 723.003 3463.43 718.047 3448.01ZM730.438 3466.67 735.394 3482.9 730.438 3484.53 724.655 3469.11ZM737.047 3487.77 742.003 3502.38 737.047 3504 732.09 3489.4Z" fill-rule="evenodd"/><path d="M704.365 3316.46 818.365 2960.46" stroke="#4EA72E" stroke-width="3.23504" stroke-miterlimit="8" fill="none" fill-rule="evenodd"/><path d="M704.372 3316.46 594.372 2960.46" stroke="#4EA72E" stroke-width="3.23504" stroke-miterlimit="8" fill="none" fill-rule="evenodd"/><path d="M856.348 3477.43 1198.35 3619.43" stroke="#4EA72E" stroke-width="3.23504" stroke-miterlimit="8" fill="none" fill-rule="evenodd"/><path d="M856.347 3477.44 1215.35 3394.44" stroke="#4EA72E" stroke-width="3.23504" stroke-miterlimit="8" fill="none" fill-rule="evenodd"/><path d="M613.38 3362.45 441.38 3030.45" stroke="#C00000" stroke-width="3.23504" stroke-miterlimit="8" fill="none" fill-rule="evenodd"/><path d="M613.386 3362.45 285.386 3191.45" stroke="#C00000" stroke-width="3.23504" stroke-miterlimit="8" fill="none" fill-rule="evenodd"/><path d="M795.359 3571.42 925.359 3921.42" stroke="#C00000" stroke-width="3.23504" stroke-miterlimit="8" fill="none" fill-rule="evenodd"/><path d="M795.353 3571.42 1100.35 3780.42" stroke="#C00000" stroke-width="3.23504" stroke-miterlimit="8" fill="none" fill-rule="evenodd"/><path d="M704.271 3315 817.994 2960.5 593.994 2960Z" fill="#4EA72E" fill-rule="evenodd" fill-opacity="0.501961"/><path d="M855.994 3476.95 1213.99 3395 1198.3 3619Z" fill="#4EA72E" fill-rule="evenodd" fill-opacity="0.501961"/><path d="M441.992 3031 284.994 3192.16 612.994 3363Z" fill="#C00000" fill-rule="evenodd" fill-opacity="0.501961"/><path d="M795.994 3571 924.96 3920 1098.99 3779.14Z" fill="#C00000" fill-rule="evenodd" fill-opacity="0.501961"/></g></svg>