<svg width="1085" height="916" xmlns="http://www.w3.org/2000/svg" xmlns:xlink="http://www.w3.org/1999/xlink" xml:space="preserve" overflow="hidden"><g transform="translate(-1444 -2927)"><path d="M1945.01 3296 2009.01 3296 2009.01 3389 1945.01 3389Z" stroke="#000000" stroke-width="7.85121" stroke-miterlimit="8" fill="#D9D9D9" fill-rule="evenodd"/><path d="M2001.93 3256.93 1992.18 3295.93 1959.68 3295.93 1949.93 3256.93Z" stroke="#000000" stroke-width="7.85085" stroke-miterlimit="8" fill="#D9D9D9" fill-rule="evenodd"/><path d="M2137.93 3523.43 2105.76 3578.91 2026.93 3532.4 2058.3 3476.91Z" stroke="#000000" stroke-width="7.85085" stroke-miterlimit="8" fill="#D9D9D9" fill-rule="evenodd"/><path d="M2144.04 3592.91 2114.92 3564.51 2131.1 3536.91 2169.92 3547.46Z" stroke="#000000" stroke-width="7.85085" stroke-miterlimit="8" fill="#D9D9D9" fill-rule="evenodd"/><path d="M1814.94 3523.43 1846.26 3578.91 1924.94 3532.4 1893.63 3476.91Z" stroke="#000000" stroke-width="7.85085" stroke-miterlimit="8" fill="#D9D9D9" fill-rule="evenodd"/><path d="M1808.83 3592.91 1837.95 3564.51 1821.77 3536.91 1782.95 3547.46Z" stroke="#000000" stroke-width="7.85085" stroke-miterlimit="8" fill="#D9D9D9" fill-rule="evenodd"/><path d="M1852.01 2932 2100.01 2932 2100.01 3071 1852.01 3071Z" stroke="#000000" stroke-width="7.85121" stroke-miterlimit="8" fill="none" fill-rule="evenodd"/><path d="M1852.01 2932 1879.47 2932 1879.47 2960 1852.01 2960ZM1906.94 2932 1934.4 2932 1934.4 2960 1906.94 2960ZM1961.87 2932 1989.34 2932 1989.34 2960 1961.87 2960ZM2016.8 2932 2045.07 2932 2045.07 2960 2016.8 2960ZM2072.54 2932 2100.01 2932 2100.01 2960 2072.54 2960Z" fill-rule="evenodd"/><path d="M1880.01 2960 1907.44 2960 1907.44 2988 1880.01 2988ZM1934.86 2960 1962.29 2960 1962.29 2988 1934.86 2988ZM1989.72 2960 2017.15 2960 2017.15 2988 1989.72 2988ZM2044.58 2960 2072.01 2960 2072.01 2988 2044.58 2988Z" fill-rule="evenodd"/><path d="M1852.01 2988 1879.47 2988 1879.47 3016 1852.01 3016ZM1906.94 2988 1934.4 2988 1934.4 3016 1906.94 3016ZM1961.87 2988 1989.34 2988 1989.34 3016 1961.87 3016ZM2016.8 2988 2045.07 2988 2045.07 3016 2016.8 3016ZM2072.54 2988 2100.01 2988 2100.01 3016 2072.54 3016Z" fill-rule="evenodd"/><path d="M1880.01 3016 1907.44 3016 1907.44 3044 1880.01 3044ZM1934.86 3016 1962.29 3016 1962.29 3044 1934.86 3044ZM1989.72 3016 2017.15 3016 2017.15 3044 1989.72 3044ZM2044.58 3016 2072.01 3016 2072.01 3044 2044.58 3044Z" fill-rule="evenodd"/><path d="M1852.01 3043 1879.47 3043 1879.47 3071 1852.01 3071ZM1906.94 3043 1934.4 3043 1934.4 3071 1906.94 3071ZM1961.87 3043 1989.34 3043 1989.34 3071 1961.87 3071ZM2016.8 3043 2045.07 3043 2045.07 3071 2016.8 3071ZM2072.54 3043 2100.01 3043 2100.01 3071 2072.54 3071Z" fill-rule="evenodd"/><path d="M1573.99 3832.9 1449.96 3615.41 1569.93 3545.9 1693.96 3763.4Z" stroke="#000000" stroke-width="7.85085" stroke-miterlimit="8" fill="none" fill-rule="evenodd"/><path d="M1574.63 3832.9 1560.96 3808.64 1584.29 3794.9 1597.96 3819.15Z" fill-rule="evenodd"/><path d="M1546.71 3784.9 1532.96 3760.64 1557.22 3746.9 1570.96 3771.16Z" fill-rule="evenodd"/><path d="M1518.71 3736.9 1504.96 3712.01 1529.22 3697.9 1542.96 3722.79Z" fill-rule="evenodd"/><path d="M1491.64 3688.9 1477.97 3664.01 1501.29 3649.9 1514.97 3674.8Z" fill-rule="evenodd"/><path d="M1463.64 3639.91 1449.97 3615.65 1473.29 3601.91 1486.97 3625.36Z" fill-rule="evenodd"/><path d="M1584.7 3794.9 1570.96 3770.94 1594.41 3756.9 1608.96 3780.85Z" fill-rule="evenodd"/><path d="M1556.64 3746.9 1542.96 3722.94 1566.29 3708.9 1579.96 3732.86Z" fill-rule="evenodd"/><path d="M1529.64 3697.91 1515.96 3674.46 1539.29 3659.91 1552.96 3684.16Z" fill-rule="evenodd"/><path d="M1501.64 3649.91 1487.97 3626.58 1511.29 3612.91 1524.97 3636.24Z" fill-rule="evenodd"/><path d="M1621.7 3804.9 1607.96 3780.64 1632.21 3766.9 1645.96 3791.15Z" fill-rule="evenodd"/><path d="M1593.7 3756.9 1579.96 3732.65 1604.21 3718.9 1617.96 3743.16Z" fill-rule="evenodd"/><path d="M1566.71 3708.91 1552.96 3684.65 1577.22 3670.9 1590.96 3695.16Z" fill-rule="evenodd"/><path d="M1538.64 3660.91 1524.96 3636.01 1548.29 3621.91 1561.96 3646.8Z" fill-rule="evenodd"/><path d="M1511.64 3612.91 1497.96 3588.01 1521.29 3573.91 1534.96 3598.8Z" fill-rule="evenodd"/><path d="M1632 3766.9 1617.96 3742.94 1641.91 3728.9 1655.96 3752.86Z" fill-rule="evenodd"/><path d="M1604.63 3718.9 1590.96 3694.95 1614.29 3680.9 1627.96 3704.86Z" fill-rule="evenodd"/><path d="M1575.71 3670.91 1561.96 3646.95 1586.22 3632.9 1599.96 3656.86Z" fill-rule="evenodd"/><path d="M1549.52 3621.91 1534.96 3598.58 1559.22 3584.91 1572.96 3608.24Z" fill-rule="evenodd"/><path d="M1669.63 3777.9 1655.95 3753.94 1679.28 3739.9 1692.95 3763.85Z" fill-rule="evenodd"/><path d="M1641.63 3728.9 1627.96 3705.58 1651.28 3691.9 1664.96 3715.23Z" fill-rule="evenodd"/><path d="M1613.7 3680.91 1599.96 3656.65 1624.21 3642.91 1637.96 3667.16Z" fill-rule="evenodd"/><path d="M1585.7 3632.91 1571.96 3608.65 1596.22 3594.91 1609.96 3619.17Z" fill-rule="evenodd"/><path d="M1558.71 3584.91 1544.96 3560.02 1569.22 3545.91 1582.96 3570.8Z" fill-rule="evenodd"/><path d="M2373.88 3836.9 2497.91 3620.22 2378.75 3549.9 2253.91 3767.4Z" stroke="#000000" stroke-width="7.85085" stroke-miterlimit="8" fill="none" fill-rule="evenodd"/><path d="M2374.16 3836.89 2387.91 3812 2363.65 3797.89 2349.91 3822.79Z" fill-rule="evenodd"/><path d="M2401.16 3787.9 2414.91 3763.64 2390.65 3749.9 2376.91 3774.16Z" fill-rule="evenodd"/><path d="M2428.86 3739.9 2442.9 3715.65 2418.95 3701.9 2404.9 3726.16Z" fill-rule="evenodd"/><path d="M2456.23 3691.9 2469.9 3667.01 2446.58 3652.9 2432.9 3677.8Z" fill-rule="evenodd"/><path d="M2483.35 3643.91 2497.9 3619.01 2473.65 3604.91 2459.9 3629.8Z" fill-rule="evenodd"/><path d="M2363.24 3797.9 2376.91 3773.94 2353.58 3759.9 2339.91 3783.85Z" fill-rule="evenodd"/><path d="M2390.86 3749.9 2404.91 3725.94 2380.95 3711.9 2366.91 3735.86Z" fill-rule="evenodd"/><path d="M2419.16 3701.9 2432.91 3677.95 2408.65 3663.9 2394.91 3687.86Z" fill-rule="evenodd"/><path d="M2446.16 3652.91 2459.9 3629.58 2435.65 3615.91 2421.9 3639.24Z" fill-rule="evenodd"/><path d="M2326.17 3808.9 2339.91 3784 2315.66 3769.9 2301.91 3794.79Z" fill-rule="evenodd"/><path d="M2353.24 3759.9 2366.91 3735.65 2343.58 3721.9 2329.91 3746.16Z" fill-rule="evenodd"/><path d="M2381.24 3711.9 2394.91 3687.65 2371.58 3673.9 2357.91 3698.16Z" fill-rule="evenodd"/><path d="M2409.16 3663.91 2422.91 3639.65 2398.65 3625.91 2384.91 3650.16Z" fill-rule="evenodd"/><path d="M2437.16 3615.91 2450.91 3591.01 2426.65 3576.91 2412.91 3601.8Z" fill-rule="evenodd"/><path d="M2315.36 3769.9 2329.91 3746.58 2305.66 3732.9 2291.91 3756.23Z" fill-rule="evenodd"/><path d="M2344.17 3721.9 2357.91 3697.95 2333.66 3683.9 2319.91 3707.86Z" fill-rule="evenodd"/><path d="M2371.16 3673.91 2384.91 3649.95 2360.65 3635.9 2346.91 3659.86Z" fill-rule="evenodd"/><path d="M2399.16 3625.91 2412.91 3601.95 2388.65 3587.91 2374.91 3611.86Z" fill-rule="evenodd"/><path d="M2279.17 3780.9 2292.92 3756.94 2268.66 3742.9 2254.92 3766.85Z" fill-rule="evenodd"/><path d="M2306.17 3732.9 2319.91 3708.94 2295.66 3694.9 2281.91 3718.86Z" fill-rule="evenodd"/><path d="M2334.17 3683.91 2347.91 3660.58 2323.66 3646.91 2309.91 3670.23Z" fill-rule="evenodd"/><path d="M2361.24 3635.91 2374.91 3612.58 2351.58 3598.91 2337.91 3622.24Z" fill-rule="evenodd"/><path d="M2389.23 3587.91 2402.91 3563.66 2379.58 3549.91 2365.91 3574.17Z" fill-rule="evenodd"/><path d="M1915.94 3339.92C1865.29 3363.65 1837.15 3419.29 1848.4 3474.92" stroke="#000000" stroke-width="7.85085" stroke-miterlimit="8" fill="none" fill-rule="evenodd"/><path d="M1899.93 3569.91C1944.28 3607.76 2008.78 3608.56 2053.94 3572.33" stroke="#000000" stroke-width="7.85085" stroke-miterlimit="8" fill="none" fill-rule="evenodd"/><path d="M1758.95 3592.91 1673.95 3643.91" stroke="#000000" stroke-width="7.85085" stroke-miterlimit="8" fill="none" fill-rule="evenodd"/><path d="M1799.95 3049.93 1536.95 3525.93" stroke="#000000" stroke-width="7.85085" stroke-miterlimit="8" fill="none" fill-rule="evenodd"/><path d="M1688.93 3814.9 2250.93 3814.9" stroke="#000000" stroke-width="7.85085" stroke-miterlimit="8" fill="none" fill-rule="evenodd"/><path d="M2035.93 3340.92C2086.58 3364.65 2114.72 3420.29 2103.47 3475.92" stroke="#000000" stroke-width="7.85085" stroke-miterlimit="8" fill="none" fill-rule="evenodd"/><path d="M2196.92 3590.91 2281.92 3642.91" stroke="#000000" stroke-width="7.85085" stroke-miterlimit="8" fill="none" fill-rule="evenodd"/><path d="M2148.92 3043.93 2411.92 3519.93" stroke="#000000" stroke-width="7.85085" stroke-miterlimit="8" fill="none" fill-rule="evenodd"/><path d="M1973.93 3124.94 1973.93 3219.94" stroke="#000000" stroke-width="7.85085" stroke-miterlimit="8" fill="none" fill-rule="evenodd"/><path d="M2528.8 3454.77C2528.51 3455.76 2527.83 3456.59 2526.92 3457.08L2441.69 3504.3C2439.8 3505.36 2437.39 3504.69 2436.31 3502.81 2436.31 3502.8 2436.3 3502.79 2436.3 3502.78L2167.11 3029.29C2166.03 3027.41 2166.69 3025.02 2168.58 3023.96 2168.59 3023.96 2168.6 3023.95 2168.61 3023.95L2253.86 2976.66C2255.75 2975.6 2258.16 2976.27 2259.24 2978.15 2259.24 2978.16 2259.25 2978.17 2259.25 2978.17L2528.42 3451.75C2528.95 3452.66 2529.09 3453.76 2528.8 3454.77ZM2441.15 3496.03 2519.5 3452.57 2254.35 2985.4 2175.92 3028.84Z" fill-rule="evenodd"/><path d="M2461.47 3473.82C2461.18 3474.81 2460.5 3475.64 2459.59 3476.14L2435.12 3489.71C2433.22 3490.76 2430.8 3490.09 2429.73 3488.19 2428.65 3486.3 2429.32 3483.91 2431.23 3482.86L2456 3469.37C2457.91 3468.34 2460.3 3469.03 2461.36 3470.93 2461.85 3471.81 2461.98 3472.84 2461.72 3473.81ZM2452.42 3457.9C2452.08 3458.9 2451.35 3459.71 2450.39 3460.17L2426.07 3473.78C2424.17 3474.84 2421.75 3474.16 2420.68 3472.27 2419.6 3470.37 2420.27 3467.98 2422.17 3466.93L2446.64 3453.36C2448.55 3452.32 2450.95 3453.02 2452 3454.92 2452.49 3455.8 2452.62 3456.83 2452.36 3457.8ZM2443.36 3441.97C2443.07 3442.96 2442.4 3443.79 2441.49 3444.28L2417.02 3457.85C2415.11 3458.91 2412.7 3458.23 2411.62 3456.34 2410.55 3454.45 2411.22 3452.06 2413.12 3451L2437.59 3437.43C2439.5 3436.4 2441.89 3437.09 2442.95 3438.99 2443.44 3439.87 2443.57 3440.9 2443.31 3441.87ZM2434.31 3426.04C2434.02 3427.03 2433.34 3427.86 2432.43 3428.35L2407.96 3441.93C2406.06 3442.98 2403.65 3442.3 2402.57 3440.41 2401.49 3438.52 2402.17 3436.13 2404.07 3435.07L2428.46 3421.48C2430.37 3420.45 2432.77 3421.15 2433.82 3423.04 2434.31 3423.92 2434.44 3424.96 2434.18 3425.93ZM2443.12 3400.21C2442.83 3401.19 2442.16 3402.02 2441.24 3402.52L2398.91 3426C2397.01 3427.06 2394.59 3426.38 2393.52 3424.49 2392.44 3422.59 2393.11 3420.2 2395.02 3419.15L2437.35 3395.66C2439.26 3394.63 2441.65 3395.33 2442.71 3397.22 2443.2 3398.11 2443.33 3399.14 2443.07 3400.11ZM2416.37 3394.48C2416.08 3395.47 2415.4 3396.3 2414.49 3396.79L2390.02 3410.36C2388.12 3411.42 2385.7 3410.74 2384.63 3408.85 2383.55 3406.95 2384.22 3404.56 2386.13 3403.51L2410.51 3390.24C2412.42 3389.2 2414.82 3389.9 2415.87 3391.8 2416.36 3392.68 2416.49 3393.71 2416.23 3394.68ZM2407.32 3378.55C2407 3379.48 2406.35 3380.25 2405.48 3380.71L2381.01 3394.28C2379.11 3395.34 2376.69 3394.66 2375.62 3392.77 2374.54 3390.88 2375.21 3388.49 2377.12 3387.43L2401.59 3373.86C2403.49 3372.83 2405.89 3373.52 2406.94 3375.42 2407.43 3376.3 2407.56 3377.33 2407.3 3378.3ZM2398.31 3362.47C2398.01 3363.46 2397.34 3364.29 2396.43 3364.78L2371.96 3378.36C2370.06 3379.41 2367.64 3378.74 2366.57 3376.84 2365.49 3374.95 2366.16 3372.56 2368.07 3371.5L2392.53 3357.93C2394.44 3356.9 2396.84 3357.6 2397.89 3359.49 2398.38 3360.37 2398.51 3361.41 2398.25 3362.38ZM2389.21 3346.7C2388.92 3347.68 2388.24 3348.51 2387.33 3349.01L2363.02 3362.62C2361.11 3363.68 2358.7 3363 2357.62 3361.11 2356.55 3359.22 2357.22 3356.83 2359.12 3355.77L2383.46 3342.08C2385.37 3341.05 2387.76 3341.75 2388.82 3343.64 2389.31 3344.52 2389.44 3345.55 2389.18 3346.52ZM2398.02 3320.86C2397.73 3321.85 2397.06 3322.68 2396.15 3323.17L2353.81 3346.65C2351.91 3347.71 2349.49 3347.03 2348.42 3345.14 2347.34 3343.25 2348.01 3340.86 2349.92 3339.8L2392.4 3316.36C2394.31 3315.33 2396.71 3316.03 2397.76 3317.92 2398.25 3318.8 2398.38 3319.84 2398.12 3320.81ZM2371.27 3315.13C2370.98 3316.12 2370.3 3316.95 2369.39 3317.44L2344.86 3331.24C2342.96 3332.3 2340.54 3331.62 2339.47 3329.73 2338.39 3327.83 2339.06 3325.44 2340.97 3324.39L2365.43 3310.82C2367.34 3309.78 2369.74 3310.48 2370.79 3312.38 2371.28 3313.26 2371.41 3314.29 2371.15 3315.26ZM2362.22 3299.2C2361.93 3300.19 2361.25 3301.02 2360.34 3301.52L2335.87 3315.09C2333.97 3316.14 2331.55 3315.47 2330.48 3313.57 2329.4 3311.68 2330.07 3309.29 2331.98 3308.23L2356.44 3294.66C2358.35 3293.63 2360.75 3294.33 2361.8 3296.22 2362.29 3297.11 2362.42 3298.14 2362.16 3299.11ZM2353.17 3283.28C2352.87 3284.26 2352.2 3285.1 2351.29 3285.59L2326.82 3299.16C2324.76 3299.84 2322.52 3298.73 2321.82 3296.68 2321.34 3295.24 2321.73 3293.65 2322.84 3292.61L2347.31 3279.04C2349.21 3278 2351.61 3278.7 2352.66 3280.6 2353.15 3281.48 2353.28 3282.51 2353.03 3283.48ZM2344.11 3267.35C2343.82 3268.34 2343.14 3269.17 2342.23 3269.66L2317.81 3283.08C2315.91 3284.14 2313.49 3283.46 2312.41 3281.57 2311.34 3279.68 2312.01 3277.29 2313.91 3276.23L2338.38 3262.66C2340.29 3261.62 2342.69 3262.32 2343.74 3264.22 2344.23 3265.1 2344.36 3266.13 2344.1 3267.1ZM2352.93 3241.51C2352.63 3242.5 2351.96 3243.33 2351.05 3243.82L2308.71 3267.31C2306.81 3268.36 2304.39 3267.68 2303.32 3265.79 2302.24 3263.9 2302.91 3261.51 2304.82 3260.45L2347.15 3236.97C2349.06 3235.94 2351.46 3236.64 2352.51 3238.53 2353 3239.41 2353.13 3240.45 2352.87 3241.42ZM2326.17 3235.78C2325.88 3236.77 2325.2 3237.6 2324.29 3238.1L2299.83 3251.67C2297.92 3252.72 2295.51 3252.05 2294.43 3250.15 2293.36 3248.26 2294.03 3245.87 2295.93 3244.82L2320.4 3231.24C2322.3 3230.21 2324.7 3230.91 2325.76 3232.8 2326.24 3233.69 2326.37 3234.72 2326.12 3235.69ZM2317.12 3219.86C2316.83 3220.85 2316.15 3221.68 2315.24 3222.17L2290.77 3235.74C2288.87 3236.8 2286.45 3236.12 2285.38 3234.23 2284.3 3232.33 2284.97 3229.94 2286.88 3228.89L2311.34 3215.32C2313.25 3214.28 2315.65 3214.98 2316.7 3216.88 2317.19 3217.76 2317.32 3218.79 2317.06 3219.76ZM2308.07 3203.93C2307.77 3204.92 2307.1 3205.75 2306.19 3206.24L2281.72 3219.81C2279.82 3220.87 2277.4 3220.19 2276.33 3218.3 2275.25 3216.41 2275.92 3214.02 2277.82 3212.96L2302.29 3199.39C2304.2 3198.36 2306.6 3199.05 2307.65 3200.95 2308.14 3201.83 2308.27 3202.86 2308.01 3203.83ZM2299.01 3188C2298.72 3188.99 2298.05 3189.82 2297.13 3190.31L2272.67 3203.89C2270.76 3204.94 2268.35 3204.26 2267.27 3202.37 2266.2 3200.48 2266.87 3198.09 2268.77 3197.03L2293.24 3183.46C2295.15 3182.43 2297.54 3183.13 2298.6 3185.02 2299.09 3185.9 2299.22 3186.94 2298.96 3187.91ZM2307.83 3162.17C2307.53 3163.15 2306.86 3163.98 2305.95 3164.48L2263.61 3187.96C2261.71 3189.02 2259.3 3188.34 2258.22 3186.45 2257.14 3184.55 2257.82 3182.16 2259.72 3181.11L2302.05 3157.62C2303.96 3156.59 2306.36 3157.29 2307.41 3159.19 2307.9 3160.07 2308.03 3161.1 2307.77 3162.07ZM2281.07 3156.44C2280.78 3157.43 2280.1 3158.26 2279.19 3158.75L2254.73 3172.32C2252.82 3173.38 2250.41 3172.7 2249.33 3170.81 2248.26 3168.91 2248.93 3166.52 2250.83 3165.47L2275.3 3151.9C2277.2 3150.86 2279.6 3151.56 2280.66 3153.46 2281.15 3154.34 2281.28 3155.37 2281.02 3156.34ZM2272.04 3140.44C2271.75 3141.42 2271.07 3142.25 2270.16 3142.75L2245.69 3156.32C2243.79 3157.38 2241.38 3156.7 2240.3 3154.8 2239.22 3152.91 2239.9 3150.52 2241.8 3149.47L2266.27 3135.89C2268.17 3134.86 2270.57 3135.56 2271.62 3137.46 2272.11 3138.34 2272.24 3139.37 2271.99 3140.34ZM2262.97 3124.58C2262.67 3125.57 2262 3126.4 2261.09 3126.9L2236.85 3140.53C2234.95 3141.59 2232.53 3140.91 2231.45 3139.02 2230.38 3137.12 2231.05 3134.73 2232.95 3133.68L2257.19 3120.04C2259.1 3119.01 2261.5 3119.71 2262.55 3121.6 2263.04 3122.48 2263.17 3123.52 2262.91 3124.49ZM2253.99 3108.68C2253.7 3109.67 2253.02 3110.5 2252.11 3110.99L2227.64 3124.56C2225.74 3125.62 2223.33 3124.94 2222.25 3123.05 2221.17 3121.15 2221.84 3118.76 2223.75 3117.71L2248.22 3104.14C2250.12 3103.1 2252.52 3103.8 2253.57 3105.7 2254.06 3106.58 2254.19 3107.61 2253.94 3108.58ZM2262.73 3082.82C2262.43 3083.81 2261.76 3084.64 2260.85 3085.13L2218.52 3108.61C2216.61 3109.67 2214.2 3108.99 2213.12 3107.1 2212.04 3105.21 2212.72 3102.82 2214.62 3101.76L2256.95 3078.28C2258.86 3077.24 2261.26 3077.94 2262.31 3079.84 2262.8 3080.72 2262.93 3081.75 2262.67 3082.72ZM2235.97 3077.09C2235.68 3078.08 2235.01 3078.91 2234.09 3079.4L2209.25 3092.87C2207.34 3093.92 2204.93 3093.25 2203.85 3091.35 2202.78 3089.46 2203.45 3087.07 2205.35 3086.02L2229.82 3072.44C2231.73 3071.41 2234.12 3072.11 2235.18 3074 2235.67 3074.89 2235.8 3075.92 2235.54 3076.89ZM2226.92 3061.16C2226.63 3062.15 2225.95 3062.98 2225.04 3063.48L2200.57 3077.05C2198.5 3077.68 2196.28 3076.52 2195.64 3074.46 2195.2 3073.08 2195.56 3071.59 2196.57 3070.57L2221.04 3057C2222.95 3055.97 2225.35 3056.66 2226.4 3058.56 2226.89 3059.44 2227.02 3060.47 2226.76 3061.44ZM2217.87 3045.24C2217.58 3046.22 2216.9 3047.06 2215.99 3047.55L2191.54 3061.05C2189.66 3062.2 2187.18 3061.61 2186.01 3059.74 2184.84 3057.86 2185.42 3055.41 2187.3 3054.26L2211.77 3040.69C2213.68 3039.65 2216.07 3040.35 2217.13 3042.25 2217.62 3043.13 2217.75 3044.16 2217.49 3045.13ZM2208.82 3029.31C2208.52 3030.3 2207.85 3031.13 2206.94 3031.62L2182.47 3045.19C2180.57 3046.25 2178.15 3045.57 2177.07 3043.68 2176 3041.79 2176.67 3039.4 2178.57 3038.34L2203.04 3024.77C2204.95 3023.74 2207.35 3024.43 2208.4 3026.33 2208.89 3027.21 2209.02 3028.24 2208.76 3029.21Z" fill-rule="evenodd"/></g></svg>